<svg width="180" height="99" viewBox="0 0 180 99" fill="none" xmlns="http://www.w3.org/2000/svg">
<g clip-path="url(#clip0_875_6517)">
<path d="M131.72 68.75L130.641 65.8774L129.576 68.75H131.72ZM128 70.8868L130.215 65.1132H131.11L133.311 70.8868H132.501L131.976 69.4009H129.363L128.824 70.8868H128ZM147.099 68.184C147.26 68.2406 147.421 68.3585 147.582 68.5377C147.743 68.7264 147.904 68.9811 148.064 69.3019L148.86 70.8868H148.022L147.283 69.4009C147.085 69.0142 146.895 68.7594 146.715 68.6368C146.536 68.5047 146.289 68.4387 145.977 68.4387H145.125V70.8868H144.344V65.1132H146.119C146.782 65.1132 147.274 65.25 147.596 65.5236C147.927 65.7972 148.093 66.2123 148.093 66.7689C148.093 67.1368 148.008 67.4387 147.837 67.6745C147.667 67.9198 147.421 68.0896 147.099 68.184ZM146.119 65.75H145.125V67.8019H146.119C146.498 67.8019 146.782 67.717 146.971 67.5472C147.16 67.3679 147.255 67.1085 147.255 66.7689C147.255 66.4387 147.16 66.184 146.971 66.0047C146.782 65.8349 146.498 65.75 146.119 65.75ZM164.309 65.5519V66.3726C164.044 66.1274 163.76 65.9481 163.457 65.8349C163.164 65.7123 162.847 65.6509 162.506 65.6509C161.843 65.6509 161.337 65.8538 160.986 66.2594C160.636 66.6557 160.461 67.2359 160.461 68C160.461 68.7642 160.636 69.3491 160.986 69.7547C161.337 70.1604 161.843 70.3632 162.506 70.3632C162.847 70.3632 163.164 70.3019 163.457 70.1792C163.76 70.0566 164.044 69.8726 164.309 69.6274V70.4481C164.035 70.6274 163.741 70.7642 163.429 70.8585C163.126 70.9528 162.804 71 162.463 71C161.583 71 160.892 70.7311 160.39 70.1934C159.888 69.6557 159.637 68.9245 159.637 68C159.637 67.0755 159.888 66.3443 160.39 65.8066C160.892 65.2689 161.583 65 162.463 65C162.813 65 163.14 65.0472 163.443 65.1415C163.746 65.2358 164.035 65.3726 164.309 65.5519ZM175.584 70.8868V65.1132H176.365V67.4764H179.219V65.1132H180V70.8868H179.219V68.1415H176.365V70.8868H175.584Z" fill="black"/>
<path d="M72.4122 2.6665L58.5156 58.6797H68.0038L78.6055 15.9227L100.77 98.9999H110.304L84.6156 2.6665H72.4122Z" fill="black"/>
<path d="M43.0169 2.2221L21.5847 21.6083L0 -0.0766602V13.8385L21.3254 35.263L50.0034 9.24099L43.0169 2.2221Z" fill="url(#paint0_linear_875_6517)"/>
<path d="M43.0322 2.22217V58.6797H52.2305V11.4785L43.0322 2.22217Z" fill="black"/>
<path d="M3.35547 71.2906V64.9495H4.49546L5.9413 69.2702L7.40105 64.9495H8.54104V71.2906H7.80422V65.7266L6.33057 70.0784H5.56594L4.10619 65.7266V71.2906H3.35547ZM22.3322 65.5246C21.7761 65.5246 21.3358 65.7577 21.0114 66.224C20.6778 66.6902 20.511 67.3223 20.511 68.1201C20.511 68.9179 20.6778 69.5499 21.0114 70.0162C21.3358 70.4825 21.7761 70.7156 22.3322 70.7156C22.8883 70.7156 23.3285 70.4825 23.6529 70.0162C23.9865 69.5499 24.1534 68.9179 24.1534 68.1201C24.1534 67.3223 23.9865 66.6902 23.6529 66.224C23.3285 65.7577 22.8883 65.5246 22.3322 65.5246ZM22.3322 64.8252C23.1292 64.8252 23.7687 65.1257 24.2507 65.7266C24.7234 66.3172 24.9597 67.115 24.9597 68.1201C24.9597 69.1251 24.7234 69.9281 24.2507 70.5291C23.7687 71.1197 23.1292 71.415 22.3322 71.415C21.5351 71.415 20.8956 71.1197 20.4136 70.5291C19.941 69.9281 19.7046 69.1251 19.7046 68.1201C19.7046 67.115 19.941 66.3172 20.4136 65.7266C20.8956 65.1257 21.5351 64.8252 22.3322 64.8252ZM37.722 65.6489H36.7906V70.5913H37.722C38.5006 70.5913 39.0706 70.3892 39.432 69.9851C39.7935 69.5914 39.9742 68.9645 39.9742 68.1045C39.9742 67.2549 39.7935 66.6332 39.432 66.2395C39.0706 65.8458 38.5006 65.6489 37.722 65.6489ZM36.026 71.2906V64.9495H37.5969C38.6998 64.9495 39.5062 65.2034 40.0159 65.7111C40.535 66.2188 40.7945 67.0166 40.7945 68.1045C40.7945 69.2028 40.535 70.011 40.0159 70.5291C39.4969 71.0368 38.6906 71.2906 37.5969 71.2906H36.026ZM51.8746 71.2906V64.9495H55.4614V65.6645H52.6393V67.545H55.3502V68.2755H52.6393V70.5757H55.5309V71.2906H51.8746ZM69.4472 68.3221C69.6047 68.3843 69.7623 68.5138 69.9199 68.7107C70.0774 68.9179 70.235 69.1977 70.3925 69.5499L71.1711 71.2906H70.3508L69.6279 69.6587C69.4333 69.2339 69.2479 68.9542 69.0718 68.8195C68.8957 68.6744 68.6547 68.6019 68.3489 68.6019H67.5147V71.2906H66.7501V64.9495H68.4879C69.1367 64.9495 69.6186 65.0998 69.9338 65.4002C70.2581 65.7007 70.4203 66.1566 70.4203 66.7679C70.4203 67.172 70.3369 67.5036 70.1701 67.7626C70.0033 68.032 69.7623 68.2185 69.4472 68.3221ZM68.4879 65.6489H67.5147V67.9025H68.4879C68.8586 67.9025 69.1367 67.8092 69.3221 67.6227C69.5074 67.4259 69.6001 67.1409 69.6001 66.7679C69.6001 66.4053 69.5074 66.1255 69.3221 65.9287C69.1367 65.7422 68.8586 65.6489 68.4879 65.6489ZM82.0427 71.2906V64.9495H83.0715L85.5878 70.2493V64.9495H86.3385V71.2906H85.3097L82.7934 65.9753V71.2906H82.0427Z" fill="black"/>
<path d="M130.012 42.5117C130.012 44.2434 129.982 45.4694 129.646 46.6188C129.066 48.4272 127.678 49.8218 125.893 50.3888C124.597 50.7719 123.239 50.7719 121.165 50.7719C119.09 50.7719 117.732 50.7719 116.451 50.3888C114.666 49.8218 113.263 48.4272 112.699 46.6188C112.317 45.3315 112.317 43.9676 112.317 41.8834V19.7846C112.317 17.7004 112.317 16.3365 112.699 15.0492C113.263 13.2561 114.666 11.8462 116.451 11.2792C117.732 10.8961 119.09 10.8961 121.165 10.8961C123.239 10.8961 124.597 10.8961 125.893 11.2792C127.678 11.8462 129.066 13.2561 129.646 15.0492C129.997 16.2752 130.012 17.5625 130.012 19.4628H138.066C138.066 17.9916 138.066 15.5702 137.67 13.3021C136.632 8.15288 132.621 4.12239 127.495 3.08028C125.161 2.6665 122.66 2.6665 121.21 2.6665C119.761 2.6665 117.26 2.6665 114.926 3.08028C109.8 4.12239 105.788 8.15288 104.751 13.3021C104.354 15.6468 104.354 18.1602 104.354 19.616V41.7454C104.354 43.2013 104.354 45.73 104.751 48.0594C105.788 53.2239 109.8 57.2391 114.926 58.2812C117.26 58.695 119.761 58.695 121.21 58.695C122.66 58.695 125.161 58.695 127.495 58.2812C132.621 57.2391 136.632 53.2239 137.67 48.0594C138.005 46.0978 138.066 43.9829 138.066 42.5117H130.012Z" fill="black"/>
<path d="M170.893 42.5117C170.893 44.2434 170.862 45.4694 170.527 46.6188C169.947 48.4272 168.559 49.8218 166.774 50.3888C165.478 50.7719 164.12 50.7719 162.046 50.7719C159.971 50.7719 158.613 50.7719 157.332 50.3888C155.547 49.8218 154.144 48.4272 153.579 46.6188C153.198 45.3315 153.198 43.9676 153.198 41.8834V19.7846C153.198 17.7004 153.198 16.3365 153.579 15.0492C154.144 13.2561 155.547 11.8462 157.332 11.2792C158.613 10.8961 159.971 10.8961 162.046 10.8961C164.12 10.8961 165.478 10.8961 166.774 11.2792C168.559 11.8462 169.947 13.2561 170.527 15.0492C170.878 16.2752 170.893 17.5625 170.893 19.4628H178.947C178.947 17.9916 178.947 15.5702 178.551 13.3021C177.513 8.15288 173.501 4.12239 168.376 3.08028C166.042 2.6665 163.54 2.6665 162.091 2.6665C160.642 2.6665 158.14 2.6665 155.807 3.08028C150.681 4.12239 146.669 8.15288 145.632 13.3021C145.235 15.6468 145.235 18.1602 145.235 19.616V41.7454C145.235 43.2013 145.235 45.73 145.632 48.0594C146.669 53.2239 150.681 57.2391 155.807 58.2812C158.14 58.695 160.642 58.695 162.091 58.695C163.54 58.695 166.042 58.695 168.376 58.2812C173.501 57.2391 177.513 53.2239 178.551 48.0594C178.886 46.0978 178.947 43.9829 178.947 42.5117H170.893Z" fill="black"/>
</g>
<defs>
<linearGradient id="paint0_linear_875_6517" x1="-14.8294" y1="-4.72102" x2="10449.1" y2="-9569.96" gradientUnits="userSpaceOnUse">
<stop stop-color="#66A998"/>
<stop offset="1" stop-color="#31514C"/>
</linearGradient>
<clipPath id="clip0_875_6517">
<rect width="180" height="99" fill="white"/>
</clipPath>
</defs>
</svg>
