<?xml version="1.0" encoding="UTF-8"?>
<svg id="Layer_1" data-name="Layer 1" xmlns="http://www.w3.org/2000/svg" viewBox="0 0 595.28 841.89">
  <defs>
    <style>
      .cls-1 {
        fill: #fcb813;
      }
    </style>
  </defs>
  <path class="cls-1" d="M463.43,21.88c24.21,0,43.83,19.62,43.83,43.83v180.5c0,117.57-13.92,214.02-41.77,289.3-27.85,75.27-76.07,139.23-144.65,191.84-53.13,40.74-111.65,70.95-175.58,90.65-28.38,8.75-57.25-12.14-57.25-41.84v-98.79c0-14.41,7.1-28.01,19.07-36.04,27.36-18.35,48.33-39.51,62.94-63.5,17.48-28.71-4.56-65.53-38.18-65.53h0c-24.21,0-43.83-19.62-43.83-43.83V65.71c0-24.21,19.62-43.83,43.83-43.83h331.59Z"/>
</svg>