<?xml version="1.0" encoding="UTF-8"?>
<svg id="Layer_1" data-name="Layer 1" xmlns="http://www.w3.org/2000/svg" viewBox="0 0 595.28 390.07">
  <defs>
    <style>
      .cls-1 {
        fill: #58595b;
      }

      .cls-2 {
        fill: #fcb813;
      }
    </style>
  </defs>
  <g>
    <path class="cls-2" d="M409.54,353.33c0,1.23-.04,2.32-.12,3.25s-.19,1.76-.33,2.48c-.43,1.96-1.27,3.65-2.52,5.06-2.36,2.71-5.6,4.07-9.72,4.07-3.48,0-6.34-.94-8.59-2.81-2.32-1.93-3.66-4.6-4.02-8h6.05c.23,1.28.62,2.28,1.15,2.97,1.25,1.62,3.07,2.44,5.46,2.44,4.41,0,6.61-2.7,6.61-8.11v-3.64c-2.39,2.45-5.15,3.67-8.27,3.67-3.55,0-6.46-1.29-8.73-3.85-2.28-2.61-3.43-5.86-3.43-9.77s1.06-7.03,3.19-9.69c2.28-2.82,5.3-4.23,9.05-4.23,3.28,0,6.01,1.22,8.19,3.67v-2.94h6.02v25.46ZM403.76,340.97c0-2.53-.68-4.56-2.03-6.08-1.37-1.55-3.13-2.33-5.27-2.33-2.28,0-4.09.85-5.41,2.54-1.2,1.52-1.79,3.48-1.79,5.89s.6,4.32,1.79,5.84c1.3,1.66,3.11,2.49,5.41,2.49s4.12-.84,5.46-2.52c1.23-1.52,1.85-3.46,1.85-5.84Z"/>
    <path class="cls-2" d="M412.76,327.88h6.02v2.33c1.11-1.16,2.09-1.95,2.94-2.38.87-.45,1.91-.67,3.11-.67,1.59,0,3.25.52,4.98,1.55l-2.76,5.51c-1.14-.82-2.26-1.23-3.35-1.23-3.28,0-4.93,2.48-4.93,7.44v13.52h-6.02v-26.07Z"/>
    <path class="cls-2" d="M427.17,340.73c0-3.77,1.35-6.97,4.04-9.61,2.69-2.64,5.98-3.96,9.85-3.96s7.19,1.33,9.91,3.99c2.68,2.66,4.02,5.93,4.02,9.8s-1.35,7.18-4.04,9.83c-2.71,2.62-6.04,3.94-9.99,3.94s-7.18-1.34-9.82-4.02c-2.64-2.64-3.96-5.96-3.96-9.96ZM433.33,340.83c0,2.61.7,4.67,2.09,6.18,1.43,1.54,3.31,2.3,5.65,2.3s4.24-.76,5.65-2.28c1.41-1.52,2.11-3.54,2.11-6.08s-.7-4.56-2.11-6.08c-1.43-1.53-3.31-2.3-5.65-2.3s-4.17.77-5.6,2.3c-1.43,1.54-2.14,3.52-2.14,5.94Z"/>
    <path class="cls-2" d="M462.99,327.88v14.96c0,4.32,1.7,6.48,5.11,6.48s5.11-2.16,5.11-6.48v-14.96h6.02v15.1c0,2.09-.26,3.89-.78,5.41-.5,1.36-1.37,2.58-2.6,3.67-2.03,1.77-4.62,2.65-7.76,2.65s-5.7-.88-7.74-2.65c-1.25-1.09-2.13-2.31-2.65-3.67-.5-1.21-.75-3.02-.75-5.41v-15.1h6.02Z"/>
    <path class="cls-2" d="M488.48,368.14h-6.02v-40.26h6.02v2.84c2.37-2.37,5.07-3.56,8.09-3.56,3.59,0,6.54,1.32,8.86,3.96,2.36,2.62,3.53,5.93,3.53,9.93s-1.17,7.17-3.51,9.77c-2.32,2.59-5.25,3.88-8.78,3.88-3.05,0-5.78-1.22-8.19-3.67v17.11ZM502.8,341.07c0-2.5-.68-4.53-2.03-6.1-1.37-1.59-3.11-2.38-5.19-2.38-2.21,0-4.01.77-5.38,2.3-1.37,1.54-2.06,3.55-2.06,6.05s.69,4.46,2.06,6.05c1.36,1.55,3.14,2.33,5.35,2.33,2.09,0,3.81-.79,5.17-2.36,1.39-1.57,2.09-3.53,2.09-5.89Z"/>
  </g>
  <path class="cls-1" d="M202.46,204.6h-35.9c-2.07,0-3.74-1.68-3.74-3.74v-62.47c0-7.43-2.2-11.14-6.6-11.14-6.56,0-9.84,6.06-9.84,18.17v55.43c0,2.07-1.68,3.74-3.74,3.74h-35.9c-2.07,0-3.74-1.68-3.74-3.74v-60.84c0-7.93-2.45-11.9-7.36-11.9-3.54,0-6.04,1.35-7.52,4.06-1.48,2.71-2.22,7.45-2.22,14.23v54.46c0,2.07-1.68,3.74-3.74,3.74h-35.89c-2.07,0-3.74-1.68-3.74-3.74v-109.46c0-2.07,1.68-3.74,3.74-3.74h35.89c2.07,0,3.74,1.68,3.74,3.74v2.31s0,.1,0,.14c0,3.45,4.26,5.15,6.52,2.54,6.47-7.48,14.14-11.23,23.01-11.23,11.74,0,20.92,5.75,27.53,17.25,1.45,2.52,5.16,2.43,6.5-.15,5.93-11.4,14.57-17.11,25.9-17.11,10.17,0,18.1,3.71,23.8,11.14,4.69,6.2,7.03,15.54,7.03,28.02v76.53c0,2.07-1.68,3.74-3.74,3.74Z"/>
  <path class="cls-1" d="M311.75,204.6h-33.28c-2.85,0-5.09-2.44-4.87-5.28.16-2.01.3-3.96.41-5.86.22-3.53.43-6.38.65-8.55-7.5,14.71-17.56,22.07-30.18,22.07-10.96,0-19.65-5.48-26.07-16.44-6.35-10.89-9.52-25.97-9.52-45.22s3.28-33.25,9.85-43.92c6.56-10.82,15.51-16.23,26.83-16.23s20.99,7,28.13,20.99c-.15-1.44-.25-2.7-.33-3.79-.07-1.08-.14-1.98-.22-2.7l-.43-6.82h0c-.18-2.81,2.06-5.19,4.88-5.19h34.16c2.7,0,4.89,2.19,4.89,4.89v107.17c0,2.7-2.19,4.89-4.89,4.89ZM272.71,144.67c0-4.33-.16-8.01-.49-11.03-.32-3.03-.85-5.5-1.57-7.41-.72-1.91-1.66-3.28-2.81-4.11-1.16-.83-2.56-1.24-4.22-1.24-7.36,0-11.03,9.77-11.03,29.32,0,13.99,3.28,20.99,9.84,20.99s10.28-8.83,10.28-26.51Z"/>
  <path class="cls-1" d="M361.8,204.6h-35.27c-2.24,0-4.06-1.82-4.06-4.06v-108.84c0-2.24,1.82-4.06,4.06-4.06h34.85c2.4,0,4.27,2.07,4.04,4.46h0c-.39,3.88,4.43,6.04,7.02,3.13,5.2-5.84,11.63-9.22,19.3-10.14,2.36-.28,4.41,1.66,4.41,4.04v38.07c0,2.8-2.79,4.78-5.41,3.81-2.49-.92-4.73-1.38-6.7-1.38-5.84,0-10.33,2.11-13.47,6.33-3.14,4.22-4.71,10.37-4.71,18.45v46.14c0,2.24-1.82,4.06-4.06,4.06Z"/>
  <path class="cls-1" d="M442.83,145.86v51.49c0,4.01-3.25,7.26-7.26,7.26h-28.87c-4.01,0-7.26-3.25-7.26-7.26V29.13c0-4.01,3.25-7.26,7.26-7.26h28.87c4.01,0,7.26,3.25,7.26,7.26v111.21"/>
  <path class="cls-1" d="M494.42,110.25v49.56c0,2.98-2.41,5.39-5.39,5.39h0c-4.14,0-6.85,4.53-4.7,8.06,1.8,2.95,4.38,5.56,7.74,7.81,1.47.99,2.35,2.66,2.35,4.43v12.16c0,3.65-3.55,6.23-7.04,5.15-7.87-2.42-15.07-6.14-21.6-11.15-8.44-6.47-14.37-14.34-17.8-23.6-3.43-9.26-5.14-21.13-5.14-35.6v-22.21c0-2.98,2.41-5.39,5.39-5.39h40.8c2.98,0,5.39,2.41,5.39,5.39Z"/>
  <path class="cls-2" d="M547.36,63.37c2.98,0,5.39,2.41,5.39,5.39v22.21c0,14.47-1.71,26.33-5.14,35.6-3.43,9.26-9.36,17.13-17.8,23.6-6.54,5.01-13.74,8.73-21.6,11.15-3.49,1.08-7.04-1.49-7.04-5.15v-12.16c0-1.77.87-3.45,2.35-4.43,3.37-2.26,5.95-4.86,7.74-7.81,2.15-3.53-.56-8.06-4.7-8.06h0c-2.98,0-5.39-2.41-5.39-5.39v-49.56c0-2.98,2.41-5.39,5.39-5.39h40.8Z"/>
  <g>
    <path class="cls-1" d="M42.99,226.54h16.83c1.21,0,2.19.98,2.19,2.19v5.41s0,0,0,0c3.66-3.83,6.79-6.42,9.38-7.78,2.76-1.41,6.23-2.11,10.4-2.11,9.3,0,16.65,4.06,22.06,12.17,0,0,0,0,0,0,5.97-8.11,14.06-12.17,24.26-12.17,18.54,0,27.81,11.24,27.81,33.73v50.89h0s-19.11,0-19.11,0h0v-45.74c0-7.89-.96-13.47-2.87-16.74-1.97-3.32-5.21-4.99-9.72-4.99-5.24,0-9.06,1.97-11.45,5.92-2.4,3.95-3.59,10.29-3.59,19.02v42.52h0s-19.11,0-19.11,0h0v-45.48c0-14.65-4.23-21.98-12.68-21.98-5.36,0-9.26,2-11.71,6-2.45,4-3.68,10.31-3.68,18.94v42.52h0s-19.02,0-19.02,0h0v-82.34h0Z"/>
    <path class="cls-1" d="M226.79,226.54h19.11v82.34h0s-19.11,0-19.11,0h0s0-8.62,0-8.62c0,0,0,0,0,0-7.83,7.33-16.26,10.99-25.28,10.99-11.39,0-20.8-4.11-28.24-12.34-7.38-8.4-11.07-18.88-11.07-31.45s3.69-22.63,11.07-30.86c7.38-8.23,16.63-12.34,27.73-12.34,9.58,0,18.18,3.95,25.78,11.84,0,0,0,0,0,0v-9.55s0,0,0,0ZM181.65,267.46c0,7.89,2.11,14.32,6.34,19.28,4.34,5.02,9.81,7.52,16.4,7.52,7.04,0,12.74-2.42,17.08-7.27,4.34-5.02,6.51-11.38,6.51-19.11s-2.17-14.09-6.51-19.11c-4.34-4.9-9.98-7.35-16.91-7.35-6.54,0-12.01,2.48-16.4,7.44-4.34,5.02-6.51,11.22-6.51,18.6Z"/>
    <path class="cls-1" d="M275.08,206.98v46.19s0,0,0,0l26.8-26.63h0s25.53,0,25.53,0c0,0,0,0,0,0l-35.76,34.58s0,0,0,0l38.38,47.77s0,0,0,0h-24.69s-27.22-34.75-27.22-34.75h0s-2.4,2.4-2.4,2.4c-.41.41-.64.97-.64,1.55v30.79h0s-19.02,0-19.02,0c0,0,0,0,0,0v-101.9h0s19.02,0,19.02,0h0Z"/>
    <path class="cls-1" d="M400.63,272.19h-59.01s0,0,0,0c.51,6.76,2.71,12.15,6.59,16.15,3.89,3.95,8.88,5.92,14.96,5.92,4.73,0,8.65-1.13,11.75-3.38,3.04-2.25,6.51-6.42,10.4-12.51h0s16.06,8.96,16.06,8.96h0c-2.48,4.23-5.1,7.85-7.86,10.86-2.76,3.02-5.72,5.49-8.88,7.44-3.16,1.94-6.57,3.37-10.23,4.27-3.66.9-7.64,1.35-11.92,1.35-12.29,0-22.15-3.94-29.59-11.84-7.44-7.95-11.16-18.49-11.16-31.62s3.61-23.56,10.82-31.62c7.27-7.95,16.91-11.92,28.91-11.92s21.7,3.86,28.74,11.58c6.99,7.67,10.48,18.29,10.48,31.87l-.08,4.48s0,0,0,0ZM381.1,256.64c-2.65-10.14-9.05-15.22-19.19-15.22-2.31,0-4.48.35-6.51,1.06-2.03.71-3.88,1.72-5.54,3.04-1.66,1.33-3.09,2.92-4.27,4.78-1.18,1.86-2.09,3.97-2.71,6.34h0s38.21,0,38.21,0Z"/>
    <path class="cls-1" d="M407.58,226.54h16.83c1.21,0,2.19.98,2.19,2.19v5.16s0,0,0,0c3.49-3.66,6.59-6.17,9.3-7.52,2.76-1.41,6.03-2.11,9.81-2.11,5.02,0,10.26,1.64,15.72,4.9h0s-8.71,17.42-8.71,17.42c0,0,0,0,0,0-3.61-2.59-7.13-3.89-10.57-3.89-10.37,0-15.56,7.83-15.56,23.5v42.69h0s-19.02,0-19.02,0h0v-82.34h0Z"/>
    <path class="cls-1" d="M506.34,240.57l-15.72,8.37h0c-2.48-5.07-5.55-7.61-9.21-7.61-1.75,0-3.24.58-4.48,1.73-1.24,1.16-1.86,2.64-1.86,4.44,0,3.16,3.66,6.29,10.99,9.38,10.09,4.34,16.88,8.34,20.37,12.01,3.49,3.66,5.24,8.59,5.24,14.79,0,7.95-2.93,14.6-8.79,19.95-5.69,5.07-12.57,7.61-20.63,7.61-13.81,0-23.59-6.73-29.33-20.21h0s16.23-7.52,16.23-7.52h0c2.25,3.95,3.97,6.45,5.16,7.52,2.31,2.14,5.07,3.21,8.29,3.21,6.43,0,9.64-2.93,9.64-8.79,0-3.38-2.48-6.54-7.44-9.47-1.92-.96-3.83-1.89-5.75-2.79-1.92-.9-3.86-1.83-5.83-2.79-5.52-2.71-9.41-5.41-11.67-8.12-2.87-3.44-4.31-7.86-4.31-13.27,0-7.16,2.45-13.07,7.36-17.75,5.02-4.68,11.1-7.02,18.26-7.02,10.54,0,18.37,5.44,23.5,16.32Z"/>
  </g>
</svg>