<svg width="184" height="50" viewBox="0 0 184 50" fill="none" xmlns="http://www.w3.org/2000/svg">
<path d="M174.921 2.35671C174.252 3.08072 174.188 4.25294 174.825 5.0459C178.457 9.59685 180.273 15.2855 180.305 20.9397C180.305 27.2145 178.139 33.4893 173.742 38.2816L173.678 38.3505C169.281 43.1083 163.514 45.4872 157.747 45.5217C152.458 45.5217 147.169 43.5565 142.9 39.5917C142.167 38.9021 141.084 38.9711 140.415 39.6951L140.383 39.7296C139.618 40.557 139.682 41.9016 140.479 42.6601C145.417 47.2455 151.566 49.5555 157.716 49.521C164.438 49.521 171.161 46.7284 176.291 41.1776L176.355 41.1087C181.452 35.5234 184.001 28.2488 184.001 20.9397C184.001 14.3202 181.867 7.7351 177.661 2.42567C176.928 1.59823 175.685 1.52927 174.921 2.35671Z" fill="#0094F8"/>
<path d="M157.715 2.49369C157.715 3.56247 158.448 4.38992 159.372 4.49335C162.717 4.90707 165.967 6.493 168.548 9.25115C171.543 12.492 173.04 16.7326 173.04 20.9733C173.072 25.2484 171.575 29.489 168.611 32.7643C168.58 32.7988 168.58 32.7988 168.548 32.8333C165.999 35.5914 162.717 37.2119 159.372 37.5911C158.416 37.6945 157.715 38.5564 157.715 39.5563V39.5908C157.715 40.763 158.639 41.6938 159.722 41.5904C163.896 41.1077 167.942 39.1081 171.16 35.6604C171.192 35.6259 171.192 35.6259 171.224 35.5914C174.92 31.5576 176.768 26.2482 176.736 20.9733C176.704 15.6983 174.856 10.4234 171.16 6.42405C167.974 2.97637 163.896 0.976711 159.722 0.494036C158.671 0.356128 157.715 1.287 157.715 2.49369Z" fill="#0094F8"/>
<path d="M157.716 7.80273C154.594 7.80273 151.439 9.04391 149.05 11.5952C149.018 11.6297 149.018 11.6297 148.986 11.6641C147.17 13.6293 146.055 16.0772 145.609 18.6285C145.386 19.8351 146.278 20.9729 147.425 20.9729H147.457C148.349 20.9729 149.113 20.2833 149.273 19.318C149.591 17.5597 150.356 15.8703 151.63 14.4912C151.662 14.4568 151.662 14.4568 151.694 14.4223C153.351 12.664 155.549 11.7676 157.716 11.802C159.883 11.8365 162.049 12.7329 163.674 14.4912C164.949 15.8703 165.713 17.5597 166.032 19.318C166.191 20.2489 166.956 20.9729 167.848 20.9729H167.88C169.027 20.9729 169.887 19.8351 169.696 18.6285C169.25 16.0772 168.135 13.6293 166.319 11.6641C163.961 9.11285 160.838 7.80273 157.716 7.80273Z" fill="#0094F8"/>
<path d="M161.093 23.8357C160.615 23.3185 159.882 23.0772 159.213 23.3185C158.99 23.3875 158.799 23.4219 158.576 23.4564C158.002 23.4909 157.429 23.2496 157.015 22.8358C156.983 22.8014 156.983 22.8014 156.951 22.7669C156.537 22.3187 156.314 21.7326 156.314 21.1465C156.314 20.8707 156.346 20.5948 156.409 20.3535C156.632 19.6295 156.473 18.8365 155.963 18.3194L155.931 18.2849C154.944 17.2161 153.287 17.6643 152.873 19.0779C152.682 19.7329 152.586 20.4569 152.586 21.1465C152.618 22.7669 153.191 24.3873 154.338 25.6285C154.37 25.6629 154.37 25.6629 154.402 25.6974C155.581 26.9386 157.078 27.5247 158.608 27.5247C159.213 27.5247 159.818 27.4213 160.392 27.2144C161.666 26.6972 162.081 24.9044 161.093 23.8357Z" fill="#0094F8"/>
<path d="M48.2396 14.9392V18.18H46.1367C46.1367 19.7314 45.8181 20.9381 45.149 21.7311C44.5118 22.5241 43.5559 22.9378 42.377 22.9378C41.5805 22.9378 40.7202 22.7654 39.8281 22.4551L40.4016 19.5935C41.0389 19.7659 41.5168 19.8349 41.8673 19.8349C42.2815 19.8349 42.6001 19.697 42.7912 19.4556C42.9824 19.2143 43.078 18.7661 43.078 18.1455V7.59561H46.1367V14.9047H48.2396V14.9392ZM44.5436 5.73386C44.0657 5.73386 43.6515 5.56148 43.3329 5.18223C42.9824 4.80299 42.8231 4.38926 42.8231 3.87211C42.8231 3.35496 42.9824 2.90676 43.3329 2.56199C43.6834 2.18275 44.0657 2.01036 44.5436 2.01036C45.0215 2.01036 45.4357 2.18275 45.7543 2.56199C46.1048 2.94124 46.2641 3.35496 46.2641 3.87211C46.2641 4.38926 46.1048 4.83746 45.7543 5.18223C45.4357 5.527 45.0215 5.73386 44.5436 5.73386ZM46.6146 16.5596C46.6146 16.0769 46.7739 15.6977 47.0925 15.3874C47.3793 15.0771 47.7616 14.9392 48.2396 14.9392H52.286V18.18H48.2396C47.7616 18.18 47.3793 18.0421 47.0925 17.7318C46.7739 17.4215 46.6146 17.0423 46.6146 16.5596ZM50.6929 16.5596C50.6929 16.0769 50.8522 15.6977 51.1708 15.3874C51.4576 15.0771 51.8399 14.9392 52.3178 14.9392H56.3642V18.18H52.3178C51.8399 18.18 51.4576 18.0421 51.1708 17.7318C50.8522 17.4215 50.6929 17.0423 50.6929 16.5596ZM54.7712 16.5596C54.7712 16.0769 54.9305 15.6977 55.2491 15.3874C55.5358 15.0771 55.9182 14.9392 56.3961 14.9392H60.4425V18.18H56.3961C55.9182 18.18 55.5358 18.0421 55.2491 17.7318C54.8986 17.4215 54.7712 17.0423 54.7712 16.5596ZM58.8176 16.5596C58.8176 16.0769 58.9769 15.6977 59.2955 15.3874C59.5822 15.0771 59.9646 14.9392 60.4425 14.9392H64.4889V18.18H60.4425C59.9646 18.18 59.5822 18.0421 59.2955 17.7318C58.9769 17.4215 58.8176 17.0423 58.8176 16.5596ZM62.8958 16.5596C62.8958 16.0769 63.0551 15.6977 63.3737 15.3874C63.6605 15.0771 64.0428 14.9392 64.5208 14.9392H68.5672V18.18H64.5208C64.0428 18.18 63.6605 18.0421 63.3737 17.7318C63.0551 17.4215 62.8958 17.0423 62.8958 16.5596ZM66.9422 16.5596C66.9422 16.0769 67.1015 15.6977 67.4201 15.3874C67.7069 15.0771 68.0892 14.9392 68.5672 14.9392H72.6136V18.18H68.5672C68.0892 18.18 67.7069 18.0421 67.4201 17.7318C67.1015 17.4215 66.9422 17.0423 66.9422 16.5596ZM71.0205 16.5596C71.0205 16.0769 71.1798 15.6977 71.4984 15.3874C71.7852 15.0771 72.1675 14.9392 72.6454 14.9392H76.6918V18.18H72.6454C72.1675 18.18 71.7852 18.0421 71.4984 17.7318C71.1798 17.4215 71.0205 17.0423 71.0205 16.5596ZM75.0988 16.5596C75.0988 16.0769 75.2581 15.6977 75.5767 15.3874C75.8634 15.0771 76.2458 14.9392 76.7237 14.9392H80.7701V18.18H76.7237C76.2458 18.18 75.8634 18.0421 75.5767 17.7318C75.2581 17.4215 75.0988 17.0423 75.0988 16.5596ZM79.1452 16.5596C79.1452 16.0769 79.3045 15.6977 79.6231 15.3874C79.9098 15.0771 80.2922 14.9392 80.7701 14.9392H84.8484V18.18H80.802C80.324 18.18 79.9417 18.0421 79.655 17.7318C79.3045 17.4215 79.1452 17.0423 79.1452 16.5596ZM83.2234 16.5596C83.2234 16.0769 83.3827 15.6977 83.7014 15.3874C83.9881 15.0771 84.3705 14.9392 84.8484 14.9392H88.8948V18.18H84.8484C84.3705 18.18 83.9881 18.0421 83.7014 17.7318C83.3827 17.4215 83.2234 17.0423 83.2234 16.5596ZM87.2698 16.5596C87.2698 16.0769 87.4292 15.6977 87.7478 15.3874C88.0345 15.0771 88.4169 14.9392 88.8948 14.9392H92.9412V18.18H88.8948C88.4169 18.18 88.0345 18.0421 87.7478 17.7318C87.4292 17.4215 87.2698 17.0423 87.2698 16.5596ZM99.2179 14.1462C99.7277 14.6978 100.556 14.9736 101.703 14.9736V18.2145C99.5365 18.2145 98.1027 17.5594 97.3381 16.2838C96.8601 16.9043 96.2229 17.387 95.4901 17.6973C94.7573 18.0421 93.9289 18.2145 92.973 18.2145C92.527 18.2145 92.1128 18.0421 91.826 17.7318C91.5074 17.4215 91.3481 17.0078 91.3481 16.5596C91.3481 16.0769 91.5074 15.6977 91.7942 15.4218C92.0809 15.146 92.4951 14.9736 92.973 14.9736C93.7059 14.9736 94.3112 14.7323 94.7892 14.2841C95.2671 13.8014 95.4901 13.1119 95.4901 12.181V7.69904H98.5488V12.181C98.5807 12.974 98.8037 13.6291 99.2179 14.1462ZM95.0122 23.9031C94.5343 23.9031 94.1201 23.7308 93.8014 23.3515C93.451 22.9723 93.2917 22.5585 93.2917 22.0414C93.2917 21.5242 93.451 21.076 93.8014 20.7313C94.1519 20.352 94.5343 20.1797 95.0122 20.1797C95.4901 20.1797 95.9043 20.352 96.2229 20.7313C96.5734 21.1105 96.7327 21.5242 96.7327 22.0414C96.7327 22.5585 96.5734 23.0067 96.2229 23.3515C95.8724 23.6963 95.4901 23.9031 95.0122 23.9031ZM99.0586 23.9031C98.5807 23.9031 98.1665 23.7308 97.8478 23.3515C97.4974 22.9723 97.3381 22.5585 97.3381 22.0414C97.3381 21.5242 97.4974 21.076 97.8478 20.7313C98.1983 20.352 98.5807 20.1797 99.0586 20.1797C99.5365 20.1797 99.9507 20.352 100.269 20.7313C100.62 21.1105 100.779 21.5242 100.779 22.0414C100.779 22.5585 100.62 23.0067 100.269 23.3515C99.9188 23.6963 99.5365 23.9031 99.0586 23.9031ZM109.095 6.14758C110.146 6.14758 111.07 6.4234 111.899 6.97502C112.727 7.52665 113.396 8.28514 113.874 9.25049C114.352 10.2158 114.607 11.2502 114.607 12.4224C114.607 13.6291 114.384 14.6634 113.906 15.5598C113.428 16.4217 112.791 17.0767 112.026 17.5249C111.23 17.9731 110.369 18.2145 109.445 18.2145C108.713 18.2145 107.98 18.0766 107.279 17.8008C106.578 17.5249 105.909 17.1112 105.303 16.5596C104.889 17.1112 104.379 17.5249 103.774 17.8008C103.169 18.0766 102.5 18.2145 101.735 18.2145C101.289 18.2145 100.875 18.0421 100.588 17.7318C100.269 17.4215 100.11 17.0078 100.11 16.5596C100.11 16.0769 100.269 15.6977 100.556 15.4218C100.843 15.146 101.257 14.9736 101.735 14.9736C102.181 14.9736 102.5 14.9047 102.723 14.7323C102.946 14.5599 103.105 14.3186 103.201 14.0428C103.296 13.767 103.424 13.2843 103.551 12.6637C103.679 12.0431 103.774 11.6294 103.838 11.4225C104.252 9.76765 104.921 8.45753 105.813 7.52665C106.705 6.59578 107.82 6.14758 109.095 6.14758ZM108.968 15.1805C109.7 15.1805 110.338 14.9392 110.815 14.491C111.293 14.0083 111.548 13.3188 111.548 12.4568C111.548 11.5949 111.325 10.9054 110.879 10.3538C110.433 9.76765 109.828 9.49183 109.127 9.49183C108.585 9.49183 108.107 9.69869 107.757 10.1124C107.406 10.4917 107.12 11.1467 106.833 12.0086C106.705 12.4224 106.61 12.8706 106.514 13.3532C106.482 13.4567 106.45 13.5946 106.419 13.7325C106.419 13.8704 106.387 14.0083 106.323 14.1807C106.705 14.5255 107.151 14.7668 107.597 14.9392C108.075 15.0771 108.521 15.1805 108.968 15.1805ZM124.102 14.9392V18.18H121.999C121.999 19.7314 121.68 20.9381 121.011 21.7311C120.374 22.5241 119.418 22.9378 118.239 22.9378C117.443 22.9378 116.582 22.7654 115.69 22.4551L116.264 19.5935C116.901 19.7659 117.379 19.8349 117.729 19.8349C118.144 19.8349 118.462 19.697 118.653 19.4556C118.845 19.2143 118.94 18.7661 118.94 18.1455V7.59561H121.999V14.9047H124.102V14.9392ZM126.651 7.66456H129.709V18.2145H124.102C123.656 18.2145 123.241 18.0421 122.955 17.7318C122.636 17.4215 122.477 17.0078 122.477 16.5596C122.477 16.0769 122.636 15.6977 122.923 15.4218C123.21 15.146 123.624 14.9736 124.102 14.9736H126.651V7.66456ZM126.141 5.6649C125.663 5.6649 125.249 5.49252 124.93 5.11327C124.58 4.73403 124.42 4.32031 124.42 3.80316C124.42 3.28601 124.58 2.83781 124.93 2.49304C125.281 2.11379 125.663 1.94141 126.141 1.94141C126.619 1.94141 127.033 2.11379 127.352 2.49304C127.702 2.87228 127.861 3.28601 127.861 3.80316C127.861 4.32031 127.702 4.7685 127.352 5.11327C127.001 5.49252 126.587 5.6649 126.141 5.6649ZM130.155 5.6649C129.677 5.6649 129.263 5.49252 128.945 5.11327C128.594 4.73403 128.435 4.32031 128.435 3.80316C128.435 3.28601 128.594 2.83781 128.945 2.49304C129.295 2.11379 129.677 1.94141 130.155 1.94141C130.633 1.94141 131.047 2.11379 131.366 2.49304C131.717 2.87228 131.876 3.28601 131.876 3.80316C131.876 4.32031 131.717 4.7685 131.366 5.11327C131.047 5.49252 130.633 5.6649 130.155 5.6649Z" fill="black"/>
<path d="M1.56311 14.9411H8.31774V13.7689C8.31774 12.7691 8.15843 11.9761 7.87168 11.4245C7.58493 10.8384 7.10701 10.4591 6.50164 10.1833C5.86441 9.942 5.03601 9.80409 4.01645 9.80409H2.61454V6.70117H4.0483C6.27861 6.70117 8.03099 7.32176 9.27359 8.52844C10.548 9.73513 11.1853 11.4935 11.1853 13.8034V18.044H1.53125V14.9411H1.56311Z" fill="#0094F8"/>
<path d="M25.4581 18.0083H23.4508C23.2278 19.6977 22.6224 20.9388 21.6666 21.8007C20.7107 22.6627 19.4044 23.0764 17.7795 23.0764C16.9829 23.0764 16.1227 22.973 15.1987 22.8006V19.8011C16.0271 19.939 16.728 19.9735 17.3653 19.9735C18.2574 19.9735 18.9265 19.8011 19.4363 19.4908C19.946 19.1805 20.2965 18.6634 20.4877 17.9738H19.6911C18.1937 17.9738 16.9511 17.7325 15.9952 17.2153C15.0394 16.6982 14.3066 16.0086 13.8605 15.1812C13.4144 14.3538 13.1914 13.4229 13.1914 12.4231C13.1914 11.4232 13.4144 10.4923 13.8924 9.63043C14.3384 8.76851 15.0712 8.07897 16.0589 7.52734C17.0466 6.97571 18.2574 6.73438 19.7549 6.73438H23.5464V14.9399H25.4581V18.0083ZM16.8555 14.2503C17.429 14.733 18.3848 14.9743 19.723 14.9743H20.6789V9.87176H19.6911C18.3848 9.87176 17.429 10.1131 16.8555 10.5958C16.282 11.0785 15.9952 11.699 15.9952 12.4231C15.9952 13.1471 16.282 13.7676 16.8555 14.2503Z" fill="#0094F8"/>
<path d="M34.0637 9.83821C35.1151 11.0449 35.6568 12.7687 35.6568 14.9408V17.9747H25.4611C25.015 17.9747 24.6646 17.8368 24.4097 17.5265C24.1548 17.2163 24.0273 16.8715 24.0273 16.4578C24.0273 16.044 24.1548 15.6993 24.4097 15.389C24.6646 15.0787 25.015 14.9408 25.4611 14.9408H32.7892C32.7892 13.1825 32.2795 11.9413 31.228 11.2173C30.1766 10.4933 28.6791 10.114 26.6718 10.114L26.0983 6.25262C27.3728 5.21832 28.7428 4.39087 30.2085 3.77029C31.6741 3.14971 33.4265 2.66703 35.5293 2.32227L35.9435 5.35623C34.7965 5.49413 33.6495 5.76995 32.5344 6.14919C31.4192 6.52844 30.4315 6.97664 29.5394 7.49379C31.5148 7.83856 33.0123 8.63153 34.0637 9.83821Z" fill="#0094F8"/>
<path d="M6.31027 33.9688V43.8292C6.31027 43.9671 6.27841 44.1395 6.21468 44.2774C6.15096 44.4153 6.08724 44.5187 5.99165 44.6222C5.89607 44.7256 5.80049 44.7946 5.67304 44.8635C5.54559 44.9325 5.41815 44.9669 5.25884 44.9669C5.13139 44.9669 4.97209 44.9325 4.8765 44.8635C4.74906 44.7946 4.65347 44.7256 4.55789 44.6222C4.4623 44.5187 4.39858 44.4153 4.33486 44.2774C4.27114 44.1395 4.23927 44.0016 4.23927 43.8292V33.9688H1.37174C1.2443 33.9688 1.08499 33.9343 0.957542 33.8654C0.830096 33.7964 0.734512 33.7275 0.638927 33.6241C0.543343 33.5206 0.479621 33.3827 0.415898 33.2793C0.352175 33.1414 0.320312 33.0035 0.320312 32.8311C0.320312 32.6587 0.352175 32.5208 0.415898 32.3829C0.479621 32.245 0.543343 32.1416 0.638927 32.0381C0.734512 31.9347 0.830096 31.8657 0.957542 31.7968C1.08499 31.7278 1.21243 31.6934 1.37174 31.6934H9.14594C9.30525 31.6934 9.43269 31.7278 9.56014 31.7968C9.68758 31.8657 9.78317 31.9347 9.87875 32.0381C9.97434 32.1416 10.0381 32.245 10.1018 32.3829C10.1655 32.5208 10.1974 32.6587 10.1974 32.8311C10.1974 33.0035 10.1655 33.1414 10.1018 33.2793C10.0381 33.4172 9.97434 33.5206 9.87875 33.6241C9.78317 33.7275 9.68758 33.7964 9.56014 33.8654C9.43269 33.9343 9.30525 33.9688 9.14594 33.9688H6.31027Z" fill="black"/>
<path d="M5.25714 45.2776C5.06597 45.2776 4.90667 45.2432 4.74736 45.1742C4.58805 45.1053 4.42875 45.0018 4.33316 44.8639C4.20572 44.726 4.11013 44.5881 4.04641 44.3812C3.98268 44.2089 3.95082 44.002 3.95082 43.8296V34.3485H1.37004C1.17888 34.3485 1.01957 34.314 0.8284 34.2451C0.669093 34.1761 0.509782 34.0727 0.382337 33.9348C0.254891 33.7969 0.159308 33.6245 0.0955854 33.4521C0.0318624 33.2797 0 33.0729 0 32.866C0 32.6591 0.0318624 32.4523 0.0955854 32.2799C0.159308 32.1075 0.254891 31.9696 0.382337 31.8317C0.509782 31.6938 0.637231 31.5903 0.8284 31.5214C1.01957 31.4524 1.17888 31.418 1.37004 31.418H9.14424C9.33541 31.418 9.49472 31.4524 9.68589 31.5214C9.8452 31.5903 10.0045 31.6938 10.1001 31.8317C10.2275 31.9696 10.3231 32.1075 10.3868 32.2799C10.4506 32.4868 10.4824 32.6591 10.4824 32.866C10.4824 33.0729 10.4506 33.2797 10.3868 33.4521C10.3231 33.6245 10.2275 33.7624 10.1001 33.9003C9.97264 34.0382 9.8452 34.1416 9.68589 34.2106C9.49472 34.2795 9.33541 34.314 9.14424 34.314H6.62719V43.7951C6.62719 44.002 6.59532 44.1744 6.5316 44.3812C6.46788 44.5536 6.37229 44.726 6.21299 44.8639C6.08554 45.0018 5.95809 45.1053 5.79879 45.1742C5.60762 45.2432 5.44831 45.2776 5.25714 45.2776ZM1.37004 32.073C1.27446 32.073 1.17888 32.1075 1.08329 32.142C0.987708 32.1765 0.923982 32.2454 0.860259 32.3144C0.796536 32.3833 0.764674 32.4523 0.700951 32.5557C0.66909 32.6247 0.637229 32.7281 0.637229 32.8315C0.637229 32.9349 0.66909 33.0384 0.700951 33.1073C0.732813 33.2108 0.796536 33.2797 0.860259 33.3487C0.923982 33.4176 0.987708 33.4521 1.08329 33.521C1.17888 33.5555 1.27446 33.59 1.33818 33.59H4.52433V43.7951C4.52433 43.8986 4.55619 44.002 4.58805 44.071C4.61992 44.1744 4.68364 44.2433 4.7155 44.3123C4.77922 44.3813 4.84294 44.4157 4.93853 44.4847C5.09783 44.5536 5.32086 44.5536 5.48017 44.4847C5.57576 44.4502 5.63948 44.3813 5.70321 44.3123C5.76693 44.2433 5.79879 44.1744 5.83065 44.1054C5.86251 44.002 5.89437 43.8986 5.89437 43.8296V33.6245H9.08052C9.1761 33.6245 9.27169 33.59 9.36727 33.5555C9.46286 33.521 9.52658 33.4521 9.5903 33.4176C9.65403 33.3487 9.71775 33.2797 9.74961 33.1763C9.78147 33.0728 9.81333 33.0039 9.81333 32.9005C9.81333 32.797 9.78147 32.6936 9.74961 32.5902C9.71775 32.4867 9.65403 32.4178 9.5903 32.3488C9.52658 32.2799 9.46286 32.2454 9.36727 32.1765C9.27169 32.142 9.20797 32.1075 9.11238 32.1075H1.37004V32.073Z" fill="black"/>
<path d="M17.3669 42.3838H11.9186L11.2176 44.2456C11.122 44.4524 10.9946 44.6248 10.8353 44.7282C10.676 44.8317 10.4848 44.9006 10.2936 44.9006C10.1662 44.9006 10.0069 44.8661 9.84756 44.7972C9.72011 44.7282 9.59266 44.6593 9.49708 44.5558C9.4015 44.4524 9.33777 44.3145 9.30591 44.2111C9.27405 44.0732 9.24219 43.9353 9.24219 43.7974C9.24219 43.6595 9.27405 43.4871 9.33777 43.3492L13.7028 32.42C13.7984 32.2131 13.9258 32.0408 14.0851 31.9029C14.2444 31.7994 14.4356 31.7305 14.6586 31.7305C14.8498 31.7305 15.041 31.7994 15.2003 31.9029C15.3596 32.0063 15.487 32.1787 15.5826 32.3855L19.9476 43.3147C20.0751 43.5905 20.0751 43.9008 20.0114 44.1766C19.9476 44.4524 19.7565 44.6593 19.5016 44.7972C19.3741 44.8661 19.2148 44.9006 19.0555 44.9006C18.8644 44.9006 18.6732 44.8317 18.482 44.7282C18.3227 44.6248 18.1953 44.4524 18.0997 44.2456L17.3669 42.3838ZM12.7469 40.1428H16.5066L14.6268 35.2816L12.7469 40.1428Z" fill="black"/>
<path d="M19.0226 45.2794C18.7677 45.2794 18.5128 45.2104 18.2898 45.0381C18.0667 44.9001 17.8756 44.6588 17.78 44.383L17.1427 42.7281H12.1405L11.5033 44.3485C11.3758 44.6588 11.2165 44.8657 10.9935 45.0036C10.6111 45.2449 10.1332 45.3139 9.68716 45.107C9.49599 45.0036 9.33669 44.9001 9.20924 44.7622C9.08179 44.6243 9.01807 44.4519 8.95435 44.2796C8.89062 44.1072 8.89062 43.9003 8.89062 43.7279C8.89062 43.5211 8.95435 43.3487 9.01807 43.1763L13.3831 32.2472C13.5105 31.9713 13.6698 31.73 13.8929 31.5921C14.3389 31.2818 14.9443 31.2818 15.3904 31.5921C15.6134 31.73 15.7727 31.9713 15.9001 32.2472L20.297 43.2108C20.4563 43.59 20.4563 43.9348 20.3608 44.314C20.2652 44.6933 20.0103 44.9691 19.6598 45.1415C19.4368 45.2104 19.2456 45.2794 19.0226 45.2794ZM11.6944 42.0386H17.5888L18.3853 44.1072C18.4491 44.2451 18.5446 44.3485 18.6402 44.4519C18.8314 44.5899 19.1182 44.5899 19.3093 44.5209C19.5005 44.4175 19.5961 44.314 19.6598 44.1072C19.7235 43.9003 19.6917 43.6935 19.6279 43.4866L15.2629 32.523C15.1992 32.3851 15.1036 32.2816 15.008 32.1782C14.785 32.0058 14.4664 32.0403 14.2433 32.1782C14.1478 32.2471 14.0522 32.3851 13.9885 32.523L9.62343 43.4521C9.59157 43.5555 9.55971 43.659 9.55971 43.7969C9.55971 43.9003 9.55971 44.0037 9.59158 44.0727C9.62344 44.1417 9.6553 44.2451 9.71902 44.314C9.78274 44.383 9.84647 44.4175 9.94205 44.4864C10.1969 44.5899 10.4518 44.5899 10.643 44.4519C10.7386 44.383 10.8342 44.2796 10.8979 44.1072L11.6944 42.0386ZM16.9834 40.5216H12.2042L14.5938 34.3847L16.9834 40.5216ZM13.2238 39.7976H15.9957L14.6257 36.2465L13.2238 39.7976Z" fill="black"/>
<path d="M21.25 32.833C21.25 32.6607 21.2819 32.5228 21.3456 32.3848C21.4093 32.2469 21.473 32.1435 21.5686 32.0401C21.6642 31.9367 21.7598 31.8677 21.8872 31.7987C22.0147 31.7298 22.1421 31.6953 22.3014 31.6953H25.8062C26.4434 31.6953 27.0169 31.8332 27.5904 32.0746C28.1321 32.3159 28.6419 32.6607 29.0561 33.0744C29.4703 33.4881 29.7889 34.0053 30.0438 34.5914C30.2668 35.1775 30.3942 35.7981 30.3942 36.4876C30.3942 36.9358 30.3305 37.384 30.2349 37.7977C30.1394 38.2114 29.9482 38.6252 29.757 38.9699C29.534 39.3147 29.311 39.6595 29.0242 39.9353C28.7374 40.2111 28.4188 40.4524 28.0684 40.6593L29.8207 42.9692C29.9163 43.0727 30.0119 43.2106 30.0438 43.3485C30.1075 43.4864 30.1075 43.6243 30.1075 43.7622C30.1075 43.9001 30.0756 44.038 30.0119 44.1759C29.9482 44.3138 29.8845 44.4173 29.7889 44.5207C29.6933 44.6241 29.5658 44.7276 29.4703 44.762C29.3428 44.7965 29.2472 44.831 29.1198 44.831C28.8649 44.831 28.6419 44.7276 28.4188 44.5207L25.7743 41.1764H23.3847V43.7277C23.3847 43.8656 23.3529 44.038 23.2891 44.1759C23.2254 44.3138 23.1617 44.4173 23.0661 44.5207C22.9705 44.6241 22.8749 44.6931 22.7475 44.762C22.62 44.831 22.4926 44.8655 22.3333 44.8655C22.2058 44.8655 22.0465 44.831 21.9191 44.762C21.7916 44.6931 21.6961 44.6241 21.6005 44.5207C21.5049 44.4173 21.4412 44.3138 21.3774 44.1759C21.3137 44.038 21.2819 43.9001 21.2819 43.7277V32.833H21.25ZM23.321 33.9708V39.0044H25.8062C26.1567 39.0044 26.4753 38.9354 26.762 38.7975C27.0488 38.6596 27.3355 38.4872 27.5586 38.2804C27.7816 38.0735 27.9728 37.7977 28.1002 37.4874C28.2277 37.1771 28.2914 36.8668 28.2914 36.5221C28.2914 36.1773 28.2277 35.8325 28.1002 35.5222C27.9728 35.212 27.7816 34.9361 27.5586 34.6948C27.3355 34.4535 27.0806 34.2811 26.762 34.1432C26.4753 34.0053 26.1567 33.9363 25.8062 33.9363H23.321V33.9708Z" fill="black"/>
<path d="M22.3036 45.2789C22.1125 45.2789 21.9532 45.2444 21.762 45.1755C21.6027 45.1065 21.4434 45.0031 21.3159 44.8652C21.1885 44.7273 21.0929 44.5894 21.0292 44.3825C20.9655 44.2101 20.9336 44.0033 20.9336 43.7964V32.8328C20.9336 32.6259 20.9655 32.4191 21.0292 32.2467C21.0929 32.0743 21.1885 31.9019 21.3159 31.7985C21.4434 31.6606 21.5708 31.5571 21.762 31.4882C21.9532 31.4192 22.1125 31.3848 22.3036 31.3848H25.8084C26.4775 31.3848 27.1147 31.5227 27.7201 31.764C28.2936 32.0398 28.8352 32.3846 29.2813 32.8328C29.7274 33.281 30.0778 33.8326 30.3327 34.4877C30.5876 35.1083 30.7151 35.7978 30.7151 36.5218C30.7151 37.0045 30.6513 37.4872 30.5239 37.9354C30.3965 38.3836 30.2371 38.7973 29.9823 39.1765C29.7592 39.5558 29.4725 39.9005 29.1857 40.2108C28.9627 40.4177 28.7397 40.5901 28.5166 40.7625L30.0141 42.7276C30.1416 42.8311 30.2371 43.0035 30.3009 43.2103C30.3646 43.4172 30.3965 43.5896 30.3965 43.7619C30.3965 43.9688 30.3646 44.1412 30.3009 44.3136C30.2371 44.486 30.1416 44.6583 29.9823 44.7962C29.8548 44.9342 29.6955 45.0376 29.5681 45.1065C29.0264 45.3479 28.5166 45.1755 28.1662 44.7962L25.6172 41.5554H23.7055V43.7619C23.7055 43.9688 23.6737 44.1412 23.61 44.3481C23.5462 44.5549 23.4188 44.6928 23.2913 44.8307C23.1639 44.9342 23.0365 45.0376 22.8771 45.1065C22.6541 45.2444 22.4948 45.2789 22.3036 45.2789ZM22.3036 32.0743C22.2081 32.0743 22.1125 32.1088 22.0169 32.1432C21.9213 32.1777 21.8576 32.2467 21.7939 32.3156C21.7301 32.3846 21.6983 32.4535 21.6345 32.557C21.6027 32.6604 21.5708 32.7294 21.5708 32.8673V43.8309C21.5708 43.9343 21.6027 44.0378 21.6345 44.1067C21.6664 44.2101 21.7301 44.2791 21.762 44.3481C21.8257 44.417 21.8894 44.4515 21.985 44.5204C22.1443 44.5894 22.3674 44.5894 22.5267 44.5204C22.6223 44.486 22.686 44.417 22.7497 44.3481C22.8134 44.2791 22.8453 44.2101 22.909 44.1067C22.9409 44.0033 22.9727 43.8999 22.9727 43.8309V40.9004H25.8403L28.5803 44.3481C28.7397 44.5204 28.9627 44.6239 29.2494 44.486C29.3132 44.4515 29.3769 44.3825 29.4725 44.3136C29.5362 44.2446 29.5999 44.1757 29.6318 44.0722C29.6636 43.9688 29.6955 43.8654 29.6955 43.7964C29.6955 43.693 29.6955 43.5896 29.6318 43.5206C29.5999 43.4172 29.5362 43.3482 29.4725 43.2793L27.4333 40.6246L27.7838 40.4177C28.1024 40.2453 28.421 40.004 28.6759 39.7282C28.9308 39.4523 29.1857 39.1765 29.3769 38.8318C29.5681 38.487 29.7274 38.1422 29.8229 37.763C29.9185 37.3837 29.9823 36.97 29.9823 36.5563C29.9823 35.9357 29.8867 35.3496 29.6636 34.798C29.4406 34.2463 29.1539 33.7981 28.7715 33.3844C28.3892 32.9707 27.9431 32.6604 27.4333 32.4535C26.9236 32.2122 26.3819 32.1088 25.7765 32.1088H22.3036V32.0743ZM25.8084 39.3489H23.0046V33.5913H25.8084C26.1907 33.5913 26.5412 33.6602 26.8917 33.8326C27.2422 33.9705 27.5289 34.2119 27.7838 34.4532C28.0387 34.729 28.2299 35.0393 28.3892 35.3841C28.5485 35.7288 28.6122 36.1426 28.6122 36.5218C28.6122 36.9011 28.5485 37.2803 28.3892 37.6251C28.2299 37.9698 28.0387 38.2801 27.7838 38.5215C27.5289 38.7628 27.2422 38.9697 26.8917 39.1076C26.5731 39.28 26.1907 39.3489 25.8084 39.3489ZM23.6737 38.6594H25.8084C26.0952 38.6594 26.3819 38.5904 26.6368 38.487C26.8917 38.3836 27.1147 38.2112 27.3059 38.0388C27.4971 37.8319 27.6564 37.6251 27.752 37.3493C27.8475 37.1079 27.9113 36.8321 27.9113 36.5218C27.9113 36.2115 27.8475 35.9357 27.752 35.6599C27.6245 35.3841 27.4971 35.1427 27.3059 34.9359C27.1147 34.729 26.8917 34.5911 26.6368 34.4532C26.3819 34.3498 26.0952 34.2808 25.8084 34.2808H23.6737V38.6594Z" fill="black"/>
<path d="M34.1224 35.7974V43.796C34.1224 43.9339 34.0905 44.1063 34.0268 44.2442C33.9631 44.3821 33.8994 44.4855 33.8038 44.589C33.7082 44.6924 33.6126 44.7614 33.4852 44.8303C33.3577 44.8993 33.2303 44.9337 33.071 44.9337C32.9435 44.9337 32.7842 44.8993 32.6568 44.8303C32.5293 44.7614 32.4337 44.6924 32.3381 44.589C32.2426 44.4855 32.1788 44.3821 32.1151 44.2442C32.0514 44.1063 32.0195 43.9684 32.0195 43.796V32.7979C32.0195 32.6255 32.0514 32.4876 32.1151 32.3497C32.1788 32.2118 32.2426 32.1084 32.3381 32.0049C32.4337 31.9015 32.5293 31.8325 32.6568 31.7636C32.7842 31.6946 32.9117 31.6946 33.071 31.6946C33.3577 31.6946 33.5807 31.7981 33.8038 32.0049L37.9139 37.3144L42.024 32.0049C42.1196 31.9015 42.2152 31.8325 42.3427 31.7636C42.4701 31.6946 42.5975 31.6602 42.725 31.6602H42.7887C42.9162 31.6602 43.0436 31.6946 43.1711 31.7636C43.2985 31.8325 43.3941 31.9015 43.4897 32.0049C43.5852 32.1084 43.649 32.2118 43.7127 32.3497C43.7764 32.4876 43.7764 32.6255 43.7764 32.7634V43.7615C43.7764 43.8994 43.7445 44.0718 43.6808 44.2097C43.6171 44.3476 43.5534 44.4511 43.4578 44.5545C43.3622 44.6579 43.2666 44.7269 43.1392 44.7958C43.0117 44.8648 42.8843 44.8993 42.725 44.8993C42.5975 44.8993 42.4701 44.8648 42.3427 44.7958C42.2152 44.7269 42.1196 44.6579 42.024 44.5545C41.9285 44.4511 41.8647 44.3476 41.801 44.2097C41.7373 44.0718 41.7054 43.9339 41.7054 43.7615V35.7284L38.5511 39.7622C38.4556 39.8656 38.36 39.9346 38.2325 40.0036C38.1051 40.0725 37.9776 40.107 37.8502 40.107C37.5953 40.107 37.3723 40.0035 37.1811 39.7622L34.1224 35.7974Z" fill="black"/>
<path d="M42.8209 45.2786C42.6298 45.2786 42.4705 45.2442 42.3112 45.1752C42.1519 45.1062 41.9925 45.0028 41.897 44.8649C41.7695 44.727 41.6739 44.5546 41.5783 44.3822C41.5146 44.2098 41.4828 44.003 41.4828 43.8306V36.7973L38.9338 40.0726C38.8064 40.2105 38.679 40.314 38.5196 40.4174C38.1054 40.6587 37.5957 40.5898 37.2133 40.2105H37.0222V39.9692L34.537 36.7973V43.8306C34.537 44.0375 34.5051 44.2098 34.4414 44.4167C34.3777 44.5891 34.2502 44.7615 34.1228 44.8994C33.9953 45.0373 33.8679 45.1062 33.7086 45.2097C33.3899 45.3821 32.9758 45.3821 32.6253 45.2097C32.466 45.1407 32.3067 45.0373 32.1792 44.8994C32.0518 44.7615 31.9562 44.6236 31.8925 44.4167C31.8287 44.2443 31.7969 44.0375 31.7969 43.8306V32.8325C31.7969 32.6256 31.8287 32.4188 31.8925 32.2464C31.9562 32.074 32.0518 31.9016 32.1792 31.7982C32.3067 31.6603 32.466 31.5568 32.6253 31.4879C33.1669 31.2466 33.7086 31.3845 34.1228 31.7982L38.0099 36.7973L41.8651 31.8327C42.0244 31.6948 42.1519 31.5913 42.3112 31.5224C42.4705 31.4534 42.6616 31.3845 42.8209 31.3845H42.9165C43.1077 31.3845 43.267 31.4534 43.4263 31.5224C43.5856 31.5913 43.7131 31.6948 43.8405 31.8327C43.968 31.9706 44.0635 32.1085 44.1273 32.2809C44.191 32.4533 44.2228 32.6601 44.2228 32.8325V43.8306C44.2228 44.0375 44.191 44.2098 44.1273 44.4167C44.0635 44.5891 43.968 44.7615 43.8087 44.8994C43.6812 45.0028 43.5538 45.1062 43.3944 45.2097C43.1714 45.2442 42.9803 45.2786 42.8209 45.2786ZM42.12 34.7977V43.7961C42.12 43.8996 42.1519 44.003 42.1837 44.0719C42.2156 44.1754 42.2793 44.2443 42.3112 44.3133C42.3749 44.3822 42.4705 44.4512 42.5342 44.4857C42.6935 44.5546 42.9165 44.5546 43.0758 44.4857C43.1714 44.4512 43.2351 44.3822 43.2989 44.3133C43.3626 44.2443 43.3944 44.1754 43.4263 44.1064C43.4582 44.003 43.49 43.8996 43.49 43.8306V32.8325C43.49 32.7291 43.4582 32.6256 43.4263 32.5567C43.3944 32.4532 43.3307 32.3843 43.2989 32.3498C43.2351 32.2809 43.1396 32.2119 43.0758 32.1774C42.9802 32.143 42.9165 32.1085 42.8209 32.1085C42.6935 32.1085 42.5979 32.143 42.5342 32.1774C42.4386 32.2119 42.343 32.2809 42.3112 32.3498L37.9461 37.9006L33.5811 32.2809C33.39 32.1085 33.1032 32.0395 32.8164 32.143C32.7209 32.1774 32.6571 32.2464 32.5934 32.2809C32.5297 32.3498 32.4978 32.4188 32.4341 32.5222C32.4022 32.5912 32.3704 32.6946 32.3704 32.798V43.7961C32.3704 43.8996 32.4022 44.003 32.4341 44.0719C32.466 44.1754 32.5297 44.2443 32.5615 44.3133C32.6253 44.3822 32.689 44.4167 32.7846 44.4857C32.9439 44.5546 33.1669 44.5546 33.3262 44.4857C33.4218 44.4512 33.4855 44.3822 33.5493 44.3133C33.613 44.2443 33.6448 44.1754 33.6767 44.0719C33.7086 43.9685 33.7404 43.8996 33.7404 43.7961V34.7977L37.4682 39.5555C37.6594 39.7623 37.8824 39.8313 38.1054 39.7279C38.201 39.6589 38.2648 39.6244 38.3285 39.5555L42.12 34.7977Z" fill="black"/>
<path d="M47.0887 44.898C46.8019 44.8635 46.5789 44.7601 46.4196 44.5532C46.2284 44.3463 46.1328 44.105 46.1328 43.7947V32.8311C46.1328 32.6587 46.1647 32.5208 46.2284 32.3829C46.2921 32.245 46.3558 32.1416 46.4514 32.0381C46.547 31.9347 46.6426 31.8657 46.77 31.7968C46.8975 31.7278 47.0249 31.6934 47.1842 31.6934H53.8433C54.0026 31.6934 54.13 31.7278 54.2575 31.7968C54.3849 31.8657 54.4805 31.9347 54.5761 32.0381C54.6717 32.1416 54.7354 32.245 54.7991 32.3829C54.8629 32.5208 54.8947 32.6587 54.8947 32.8311C54.8947 32.969 54.8629 33.1414 54.7991 33.2793C54.7354 33.4172 54.6717 33.5206 54.5761 33.6241C54.4805 33.7275 54.3849 33.7964 54.2575 33.8654C54.13 33.9343 54.0026 33.9688 53.8433 33.9688H48.2038V37.0373H52.6007C52.76 37.0373 52.8874 37.0717 53.0149 37.1407C53.1423 37.2096 53.2379 37.2786 53.3335 37.382C53.4291 37.4855 53.4928 37.5889 53.5565 37.7268C53.6203 37.8647 53.6521 38.0026 53.6521 38.175C53.6521 38.3129 53.6203 38.4853 53.5565 38.5887C53.4928 38.7266 53.4291 38.8301 53.3335 38.9335C53.2379 39.0369 53.1423 39.1059 53.0149 39.1748C52.8874 39.2438 52.76 39.2438 52.6007 39.2438H48.2038V42.657H53.8433C54.0026 42.657 54.13 42.6915 54.2575 42.7604C54.3849 42.8294 54.4805 42.8983 54.5761 43.0018C54.6717 43.1052 54.7354 43.2431 54.7991 43.3465C54.8629 43.4844 54.8947 43.6223 54.8947 43.7947C54.8947 44.105 54.7991 44.3808 54.608 44.5877C54.4168 44.7945 54.1619 44.898 53.8751 44.898H47.0887Z" fill="black"/>
<path d="M53.8455 45.2776H47.059C46.7085 45.2432 46.4218 45.1053 46.1669 44.8295C45.912 44.5536 45.8164 44.2089 45.8164 43.8296V32.866C45.8164 32.6591 45.8483 32.4523 45.912 32.2799C45.9757 32.1075 46.0713 31.9351 46.1987 31.8317C46.3262 31.6938 46.4536 31.5903 46.6448 31.5214C46.836 31.4524 46.9953 31.418 47.1864 31.418H53.8455C54.0367 31.418 54.196 31.4524 54.3871 31.5214C54.5464 31.5903 54.7058 31.6938 54.8013 31.8317C54.9288 31.9696 55.0244 32.1075 55.0881 32.3144C55.1518 32.4867 55.1837 32.6936 55.1837 32.9005C55.1837 33.1073 55.1518 33.2797 55.0881 33.4866C55.0244 33.659 54.9288 33.8313 54.8013 33.9348C54.6739 34.0727 54.5464 34.1761 54.3871 34.2451C54.196 34.314 54.0367 34.3485 53.8455 34.3485H48.5565V36.6929H52.6348C52.8259 36.6929 53.0171 36.7274 53.1764 36.7963C53.3357 36.8653 53.495 36.9687 53.6225 37.1411C53.7181 37.2445 53.8455 37.4169 53.9092 37.5893C53.9729 37.7617 54.0048 37.9686 54.0048 38.1754C54.0048 38.3823 53.9729 38.5547 53.9092 38.7615C53.8455 38.9339 53.7499 39.1063 53.6225 39.2097C53.495 39.3476 53.3676 39.4511 53.2083 39.52C53.049 39.589 52.8578 39.6234 52.6666 39.6234H48.5884V42.3126H53.8774C54.0685 42.3126 54.2597 42.3471 54.419 42.4161C54.5783 42.485 54.7376 42.6229 54.8651 42.7608C54.9925 42.8987 55.0881 43.0367 55.1518 43.209C55.2155 43.4159 55.2474 43.5883 55.2474 43.7951C55.2474 44.2089 55.12 44.5536 54.8651 44.8295C54.5464 45.1397 54.2278 45.2776 53.8455 45.2776ZM47.1227 44.5536H53.8455C54.0367 44.5536 54.196 44.4847 54.3553 44.3468C54.4827 44.2089 54.5464 44.0365 54.5464 43.7951C54.5464 43.6917 54.5146 43.5883 54.4827 43.4849C54.4509 43.3814 54.3871 43.3125 54.3234 43.2435C54.2597 43.1746 54.196 43.1401 54.1004 43.0711C54.0367 43.0367 53.9411 43.0022 53.8455 43.0022H47.8874V38.865H52.6348C52.7303 38.865 52.8259 38.8305 52.9215 38.796C53.0171 38.7615 53.0808 38.6926 53.1445 38.6581C53.2083 38.5891 53.272 38.5202 53.3039 38.4168C53.3357 38.3133 53.3676 38.2444 53.3676 38.1409C53.3676 38.0375 53.3357 37.9341 53.3039 37.8306C53.272 37.7272 53.2083 37.6583 53.1445 37.5893C53.0808 37.5204 53.0171 37.4514 52.9215 37.4169C52.8259 37.3825 52.7622 37.348 52.6348 37.348H47.8874V33.5555H53.8455C53.9411 33.5555 54.0367 33.5211 54.1323 33.4866C54.2278 33.4521 54.2916 33.3831 54.3553 33.3142C54.419 33.2452 54.4509 33.1763 54.5146 33.0729C54.5464 32.9694 54.5783 32.866 54.5783 32.797C54.5783 32.6936 54.5464 32.5902 54.5146 32.4867C54.4827 32.3833 54.419 32.3144 54.3553 32.2454C54.2916 32.1765 54.2278 32.142 54.1323 32.1075C54.0367 32.073 53.9729 32.0385 53.8774 32.0385H47.2183C47.1227 32.0385 47.0271 32.073 46.9316 32.1075C46.836 32.142 46.7722 32.2109 46.7085 32.2454C46.6448 32.3144 46.5811 32.3833 46.5492 32.4867C46.5174 32.5902 46.4855 32.6936 46.4855 32.797V43.7607C46.4855 43.9675 46.5492 44.1399 46.6767 44.2778C46.7723 44.4502 46.9316 44.5192 47.1227 44.5536Z" fill="black"/>
<path d="M57.5418 44.898C57.255 44.8635 57.032 44.7601 56.8727 44.5532C56.6815 44.3463 56.5859 44.105 56.5859 43.7947V32.8311C56.5859 32.6587 56.6178 32.5208 56.6815 32.3829C56.7453 32.245 56.809 32.1416 56.9046 32.0381C57.0001 31.9347 57.0957 31.8657 57.2232 31.7968C57.3506 31.7278 57.4781 31.6934 57.6374 31.6934H64.2964C64.4557 31.6934 64.5832 31.7278 64.7106 31.7968C64.8381 31.8657 64.9336 31.9347 65.0292 32.0381C65.1248 32.1416 65.1885 32.245 65.2523 32.3829C65.316 32.5208 65.3478 32.6587 65.3478 32.8311C65.3478 32.969 65.316 33.1414 65.2523 33.2793C65.1885 33.4172 65.1248 33.5206 65.0292 33.6241C64.9336 33.7275 64.8381 33.7964 64.7106 33.8654C64.5832 33.9343 64.4557 33.9688 64.2964 33.9688H58.6569V37.0373H63.0538C63.2131 37.0373 63.3406 37.0717 63.468 37.1407C63.5955 37.2096 63.691 37.2786 63.7866 37.382C63.8822 37.4855 63.9459 37.5889 64.0097 37.7268C64.0734 37.8647 64.1052 38.0026 64.1052 38.175C64.1052 38.3129 64.0734 38.4853 64.0097 38.5887C63.9459 38.7266 63.8822 38.8301 63.7866 38.9335C63.691 39.0369 63.5955 39.1059 63.468 39.1748C63.3406 39.2438 63.2131 39.2438 63.0538 39.2438H58.6569V42.657H64.2964C64.4557 42.657 64.5832 42.6915 64.7106 42.7604C64.8381 42.8294 64.9336 42.8983 65.0292 43.0018C65.1248 43.1052 65.1885 43.2431 65.2523 43.3465C65.316 43.4844 65.3478 43.6223 65.3478 43.7947C65.3478 44.105 65.2523 44.3808 65.0611 44.5877C64.8699 44.7945 64.615 44.898 64.3283 44.898H57.5418Z" fill="black"/>
<path d="M64.2947 45.2776H57.5082C57.1578 45.2432 56.8391 45.1053 56.6161 44.8295C56.3612 44.5536 56.2656 44.2089 56.2656 43.8296V32.866C56.2656 32.6591 56.2975 32.4523 56.3612 32.2799C56.4249 32.1075 56.5205 31.9351 56.648 31.8317C56.7754 31.6938 56.9029 31.5903 57.094 31.5214C57.2852 31.4524 57.4445 31.418 57.6357 31.418H64.2947C64.4859 31.418 64.6452 31.4524 64.8364 31.5214C64.9957 31.5903 65.155 31.7283 65.2506 31.8317C65.378 31.9696 65.4736 32.1075 65.5373 32.2799C65.601 32.4523 65.6329 32.6591 65.6329 32.866C65.6329 33.0729 65.601 33.2452 65.5373 33.4521C65.4736 33.6245 65.378 33.7969 65.2506 33.9003C65.1231 34.0382 64.9957 34.1416 64.8364 34.2106C64.6452 34.2795 64.4859 34.314 64.2947 34.314H59.0057V36.6584H63.084C63.2752 36.6584 63.4663 36.6929 63.6256 36.7619C63.7849 36.8308 63.9442 36.9343 64.0717 37.0722C64.1673 37.1756 64.2947 37.348 64.3584 37.5204C64.4222 37.6927 64.454 37.8996 64.454 38.1065C64.454 38.3133 64.4222 38.4857 64.3584 38.6926C64.2947 38.865 64.1991 39.0373 64.0717 39.1408C63.9442 39.2442 63.8168 39.3821 63.6256 39.4511C63.4663 39.52 63.2752 39.5545 63.084 39.5545H59.0057V42.2437H64.2947C64.4859 42.2437 64.6771 42.2782 64.8364 42.3471C64.9957 42.4161 65.155 42.554 65.2824 42.6919C65.4099 42.8298 65.5055 42.9677 65.5692 43.1401C65.6329 43.347 65.6648 43.5193 65.6648 43.7262C65.6648 44.1399 65.5373 44.4847 65.2824 44.7605C64.9957 45.1397 64.6771 45.2776 64.2947 45.2776ZM57.5719 44.5536H64.2947C64.4859 44.5536 64.6452 44.4847 64.7726 44.3468C64.9001 44.2089 64.9638 44.0365 64.9638 43.7951C64.9638 43.6917 64.9319 43.5883 64.9001 43.4849C64.8682 43.3814 64.8045 43.3125 64.7408 43.2435C64.6771 43.1746 64.6133 43.1401 64.5178 43.0711C64.454 43.0367 64.3584 43.0022 64.2629 43.0022H58.3048V38.865H63.0521C63.1477 38.865 63.2433 38.8305 63.3389 38.796C63.4345 38.7615 63.4982 38.6926 63.5619 38.6581C63.6256 38.5891 63.6894 38.5202 63.7212 38.4168C63.7531 38.3133 63.7849 38.2444 63.7849 38.1409C63.7849 38.0375 63.7531 37.9341 63.7212 37.8306C63.6894 37.7272 63.6256 37.6583 63.5619 37.5893C63.4982 37.5204 63.4345 37.4514 63.3389 37.4169C63.2433 37.3825 63.1796 37.348 63.0521 37.348H58.3048V33.5555H64.2629C64.3584 33.5555 64.454 33.5211 64.5496 33.4866C64.6452 33.4521 64.7089 33.3831 64.7408 33.3487C64.8045 33.2797 64.8364 33.2108 64.9001 33.1073C64.9319 33.0039 64.9638 32.9005 64.9638 32.8315C64.9638 32.7281 64.9319 32.6247 64.9001 32.5212C64.8682 32.4178 64.8045 32.3488 64.7408 32.2799C64.6771 32.2109 64.6133 32.1765 64.5178 32.142C64.4222 32.1075 64.3584 32.073 64.2629 32.073H57.6038C57.5082 32.073 57.4126 32.1075 57.3171 32.142C57.2215 32.1765 57.1577 32.2454 57.094 32.3144C57.0303 32.3833 56.9984 32.4523 56.9347 32.5557C56.9029 32.6591 56.871 32.7281 56.871 32.866V43.8296C56.871 44.0365 56.9347 44.2089 57.0622 44.3468C57.2215 44.4502 57.3808 44.5192 57.5719 44.5536Z" fill="black"/>
<path d="M67.3892 44.8993C67.2299 44.8993 67.0706 44.8993 66.975 44.8648C66.8476 44.8303 66.752 44.7614 66.5927 44.6234C66.3378 44.3821 66.2422 44.1063 66.2422 43.796C66.2422 43.7615 66.2422 43.6926 66.2741 43.6236C66.3059 43.4512 66.3378 43.3133 66.4334 43.1754C66.4652 43.1065 66.4971 43.072 66.5289 43.0375L73.5703 33.9356H67.3892C67.2618 33.9356 67.1024 33.9012 66.975 33.8322C66.8476 33.7632 66.752 33.6943 66.6564 33.5909C66.5608 33.4874 66.4971 33.384 66.4334 33.2461C66.3696 33.1082 66.3378 32.9703 66.3378 32.7979C66.3378 32.6255 66.3696 32.4876 66.4334 32.3497C66.4971 32.2118 66.5608 32.1084 66.6564 32.0049C66.752 31.9015 66.8476 31.8325 66.975 31.7636C67.1024 31.6946 67.2299 31.6602 67.3892 31.6602H75.6732C75.8325 31.6602 75.9918 31.7291 76.1192 31.7981C76.2148 31.8325 76.3104 31.9015 76.3741 31.9704C76.4697 32.0739 76.5653 32.1773 76.629 32.3152C76.6928 32.4531 76.7246 32.591 76.7246 32.7289C76.7246 32.8668 76.7246 33.0048 76.6609 33.1427C76.629 33.2806 76.5653 33.4185 76.4697 33.5219L69.4602 42.5893H75.8325C75.9918 42.5893 76.1192 42.6238 76.2467 42.6927C76.3741 42.7617 76.4697 42.8307 76.5653 42.9341C76.6609 43.0375 76.7246 43.1409 76.7883 43.2789C76.8521 43.4168 76.8839 43.5547 76.8839 43.727C76.8839 43.8994 76.8521 44.0373 76.7883 44.1753C76.7246 44.3132 76.6609 44.4166 76.5653 44.52C76.4697 44.6234 76.3741 44.6924 76.2467 44.7613C76.1192 44.8303 75.9918 44.8648 75.8325 44.8648H67.3892V44.8993Z" fill="black"/>
<path d="M75.8627 45.2776H67.3876C67.1964 45.2776 67.0371 45.2432 66.8778 45.2087C66.7185 45.1742 66.5592 45.0708 66.368 44.8984C66.0494 44.5881 65.8901 44.2089 65.922 43.7951C65.922 43.7607 65.922 43.6572 65.9538 43.5883C65.9857 43.3814 66.0494 43.209 66.1769 43.0022C66.2087 42.9332 66.2406 42.8643 66.3043 42.8298L72.8678 34.3485H67.3876C67.1964 34.3485 67.0371 34.314 66.846 34.2451C66.6866 34.1761 66.5273 34.0727 66.3999 33.9348C66.2724 33.7969 66.1769 33.659 66.1131 33.4521C66.0494 33.2797 66.0176 33.0729 66.0176 32.866C66.0176 32.6591 66.0494 32.4523 66.145 32.2799C66.2087 32.1075 66.3043 31.9696 66.4318 31.8317C66.5592 31.6938 66.7185 31.5903 66.8778 31.5214C67.069 31.4524 67.2283 31.418 67.4195 31.418H75.7034C75.9583 31.4524 76.1495 31.4869 76.3088 31.5904C76.4363 31.6593 76.5318 31.7283 76.6274 31.7972C76.7549 31.9351 76.8823 32.073 76.946 32.2454C77.0098 32.4178 77.0735 32.5902 77.0735 32.797C77.0735 32.9694 77.0735 33.1763 77.0098 33.3487C76.946 33.521 76.8505 33.6934 76.723 33.8658L70.1914 42.3126H75.8627C76.0539 42.3126 76.2451 42.3471 76.4044 42.4161C76.5637 42.485 76.723 42.5885 76.8186 42.7264C76.946 42.8643 77.0416 43.0022 77.1053 43.1746C77.1691 43.3469 77.2009 43.5538 77.2009 43.7607C77.2009 43.9675 77.1691 44.1744 77.1053 44.3468C77.0416 44.5192 76.946 44.6915 76.8186 44.795C76.6911 44.9329 76.5637 45.0363 76.4044 45.1053C76.2132 45.2432 76.0539 45.2776 75.8627 45.2776ZM75.6716 32.073H67.4195C67.3239 32.073 67.2283 32.1075 67.1327 32.142C67.0371 32.1765 66.9734 32.2454 66.9097 32.3144C66.846 32.3833 66.7822 32.4523 66.7504 32.5557C66.7185 32.6591 66.6866 32.7626 66.6866 32.866C66.6866 32.9694 66.7185 33.0729 66.7504 33.1418C66.7822 33.2452 66.846 33.3142 66.9097 33.3831C66.9734 33.4521 67.0371 33.4866 67.1327 33.5555C67.2283 33.59 67.3239 33.6245 67.3876 33.6245H74.2697L66.6866 43.4159C66.6229 43.5193 66.5911 43.5883 66.5911 43.6917C66.5911 43.7607 66.5592 43.7951 66.5592 43.8296C66.5592 44.071 66.6229 44.2433 66.7822 44.3812C66.9097 44.4847 66.9734 44.5192 67.0053 44.5192C67.1008 44.5536 67.1964 44.5536 67.3557 44.5536H75.8309C75.9265 44.5536 76.0221 44.5192 76.1176 44.4847C76.2132 44.4502 76.2769 44.3813 76.3407 44.3123C76.4044 44.2433 76.4362 44.1744 76.5 44.071C76.5318 43.9675 76.5637 43.8641 76.5637 43.7607C76.5637 43.6572 76.5318 43.5538 76.5 43.4849C76.4681 43.3814 76.4044 43.3125 76.3407 43.2435C76.2769 43.1746 76.2132 43.1056 76.1176 43.0711C76.0539 43.0367 75.9583 43.0022 75.8627 43.0022H68.7576L76.2451 33.3142C76.3088 33.2108 76.3725 33.1418 76.3725 33.0384C76.4044 32.9349 76.4044 32.8315 76.4044 32.7626C76.4044 32.6591 76.3725 32.5557 76.3407 32.4867C76.3088 32.3833 76.2451 32.3144 76.1814 32.2454C76.1495 32.2109 76.0858 32.1765 76.022 32.142C75.8946 32.1075 75.799 32.073 75.6716 32.073Z" fill="black"/>
<path d="M92.5579 33.5914C92.749 33.7983 92.8765 34.0741 92.8765 34.3844C92.8765 34.6947 92.7809 34.936 92.5579 35.1774C92.4623 35.2808 92.3348 35.3842 92.2074 35.4187C92.0799 35.4877 91.9525 35.4877 91.825 35.4877C91.6976 35.4877 91.5702 35.4532 91.4427 35.4187C91.3153 35.3498 91.2197 35.2808 91.1241 35.1774C90.7099 34.7292 90.2638 34.3844 89.7541 34.1776C89.2443 33.9707 88.7345 33.8673 88.1928 33.8673C87.6193 33.8673 87.1096 33.9707 86.5998 34.212C86.09 34.4534 85.6758 34.7637 85.2934 35.1774C84.9111 35.5911 84.6244 36.0393 84.4013 36.5909C84.1783 37.1426 84.0827 37.7287 84.0827 38.3492C84.0827 38.9354 84.1783 39.5215 84.4013 40.0386C84.5925 40.5902 84.8792 41.0384 85.2616 41.4522C85.6121 41.8659 86.0581 42.1762 86.5679 42.4175C87.0777 42.6589 87.6193 42.7968 88.1928 42.7968C88.7663 42.7968 89.308 42.6933 89.7859 42.4865C90.2638 42.2796 90.7099 41.9348 91.1241 41.4866C91.2197 41.3832 91.3153 41.3143 91.4427 41.2453C91.5702 41.1764 91.6976 41.1764 91.8569 41.1764C91.9844 41.1764 92.1118 41.2108 92.2393 41.2453C92.3667 41.2798 92.4623 41.3832 92.5579 41.4522C92.6535 41.5556 92.749 41.6935 92.7809 41.8314C92.8446 41.9693 92.8446 42.1072 92.8446 42.2451C92.8446 42.383 92.8128 42.5209 92.7809 42.6588C92.7172 42.7968 92.6535 42.9347 92.5579 43.0036C91.9525 43.6587 91.2515 44.1758 90.4869 44.4861C89.7222 44.7964 88.9575 44.9688 88.1291 44.9688C87.5556 44.9688 87.014 44.8998 86.5042 44.7275C85.9944 44.5551 85.4846 44.3482 85.0386 44.0379C84.5925 43.7621 84.1783 43.4173 83.796 43.0036C83.4136 42.5899 83.095 42.1417 82.8401 41.659C82.5852 41.1763 82.3622 40.6247 82.2347 40.0386C82.0754 39.487 82.0117 38.8664 82.0117 38.2803C82.0117 37.6942 82.0754 37.1081 82.2347 36.5565C82.3622 36.0048 82.5852 35.4532 82.8401 34.9705C83.095 34.4878 83.4136 34.0052 83.7641 33.5914C84.1464 33.1777 84.5606 32.7985 85.0067 32.5227C85.4528 32.2124 85.9625 31.971 86.5042 31.8331C87.0458 31.6607 87.6193 31.5918 88.2247 31.5918C89.0212 31.5918 89.8178 31.7642 90.5506 32.0745C91.2515 32.4537 91.9206 32.9364 92.5579 33.5914Z" fill="#0094F8"/>
<path d="M88.0962 45.4172C87.4908 45.4172 86.9173 45.3483 86.3756 45.1759C85.834 45.0035 85.2924 44.7622 84.8463 44.4519C84.3684 44.1416 83.9223 43.7623 83.54 43.3486C83.1576 42.9004 82.8072 42.4522 82.5204 41.9006C82.2337 41.3834 82.0106 40.7973 81.8832 40.2112C81.7239 39.6251 81.6602 38.9701 81.6602 38.3495C81.6602 37.7289 81.7239 37.1083 81.8832 36.5222C82.0425 35.9361 82.2337 35.3845 82.5204 34.8673C82.7753 34.3502 83.1258 33.8675 83.5081 33.4193C83.8905 32.9711 84.3365 32.5919 84.8144 32.2816C85.2924 31.9713 85.834 31.6955 86.4075 31.5231C87.7457 31.1094 89.275 31.1783 90.6769 31.7644C91.4735 32.1092 92.2063 32.6263 92.8435 33.3159C93.0984 33.5917 93.2577 33.9365 93.2577 34.3502C93.2577 34.7639 93.1303 35.1087 92.8435 35.3845C92.7161 35.5224 92.5568 35.6258 92.3656 35.7293C92.047 35.8672 91.6965 35.8672 91.346 35.7293C91.1867 35.6603 91.0274 35.5569 90.9 35.419C90.5176 35.0052 90.1034 34.6949 89.6255 34.4881C88.7015 34.0744 87.6182 34.0744 86.7261 34.4881C86.2482 34.6949 85.8659 35.0052 85.5154 35.35C85.1649 35.7292 84.91 36.143 84.687 36.6601C84.4958 37.1428 84.4002 37.6944 84.4002 38.2805C84.4002 38.8322 84.4958 39.3493 84.687 39.832C84.8782 40.3147 85.1331 40.7629 85.4835 41.1421C85.834 41.5214 86.2164 41.8316 86.6624 42.0385C87.1085 42.2454 87.6182 42.3833 88.128 42.3833C88.6697 42.3833 89.1476 42.2798 89.5937 42.073C90.0397 41.8661 90.4539 41.5558 90.8363 41.1766C90.9637 41.0387 91.123 40.9353 91.2823 40.8663C91.6009 40.7284 91.9514 40.7284 92.3019 40.8663C92.4612 40.9353 92.6205 41.0387 92.7479 41.1421C92.8754 41.28 93.0028 41.4524 93.0666 41.6248C93.1303 41.8316 93.1621 42.004 93.1621 42.1764C93.1621 42.3488 93.1303 42.5557 93.0666 42.728C93.0028 42.9004 92.9073 43.0728 92.7798 43.2107C92.1426 43.9003 91.4098 44.4519 90.6132 44.7622C89.7848 45.2448 88.9564 45.4172 88.0962 45.4172ZM88.1599 31.9713C87.6182 31.9713 87.0766 32.0402 86.535 32.2126C86.0252 32.385 85.5473 32.5919 85.1331 32.8677C84.687 33.1435 84.3047 33.4883 83.9542 33.902C83.6037 34.2812 83.317 34.7294 83.0621 35.2121C82.8072 35.6603 82.616 36.1774 82.4886 36.7291C82.3611 37.2462 82.2974 37.7979 82.2974 38.3495C82.2974 38.9356 82.3611 39.4872 82.4886 40.0389C82.616 40.5905 82.8072 41.0732 83.0621 41.5558C83.317 42.004 83.6037 42.4522 83.986 42.8315C84.3365 43.2107 84.7507 43.5555 85.1649 43.8313C85.5791 44.1071 86.057 44.314 86.5668 44.4864C87.7457 44.8656 89.1157 44.7622 90.3265 44.245C91.0274 43.9347 91.6965 43.4521 92.27 42.8315C92.3337 42.7625 92.3656 42.6936 92.4293 42.5901C92.4612 42.4867 92.4931 42.4177 92.4931 42.3143C92.4931 42.2109 92.4612 42.1075 92.4293 42.004C92.3975 41.9351 92.3337 41.8316 92.27 41.7627C92.2063 41.6937 92.1426 41.6593 92.047 41.6248C91.824 41.5558 91.6647 41.5558 91.5053 41.6248C91.4098 41.6593 91.346 41.6937 91.2823 41.7627C90.8363 42.2454 90.3583 42.5901 89.8167 42.8315C89.275 43.0728 88.7015 43.1762 88.0962 43.1762C87.4589 43.1762 86.8854 43.0383 86.3438 42.7625C85.8022 42.5212 85.3242 42.1419 84.9419 41.6937C84.5595 41.2455 84.2409 40.7284 84.0179 40.1423C83.7949 39.5562 83.6674 38.9356 83.6674 38.315C83.6674 37.6255 83.7949 37.0049 84.0179 36.4188C84.2409 35.8327 84.5914 35.3155 84.9737 34.9018C85.3561 34.4881 85.834 34.1088 86.3756 33.8675C87.4271 33.3848 88.7015 33.3848 89.7848 33.833C90.3265 34.0744 90.8363 34.4191 91.2823 34.9018C91.346 34.9708 91.4098 35.0052 91.5053 35.0397C91.6965 35.1087 91.8558 35.1087 92.047 35.0397C92.1426 35.0052 92.2063 34.9363 92.27 34.8673C92.3975 34.7294 92.4931 34.557 92.4931 34.3502C92.4931 34.1433 92.4293 33.9709 92.3019 33.833C91.7284 33.2124 91.0593 32.7298 90.3583 32.4195C89.6574 32.1437 88.8927 31.9713 88.1599 31.9713Z" fill="#0094F8"/>
<path d="M100.271 31.625C101.131 31.625 101.928 31.7974 102.692 32.1422C103.457 32.4869 104.094 32.9696 104.668 33.5902C105.241 34.2108 105.687 34.9003 106.006 35.7278C106.325 36.5552 106.484 37.4171 106.484 38.348C106.484 38.9686 106.42 39.5547 106.261 40.1408C106.102 40.7269 105.91 41.244 105.624 41.7267C105.369 42.2094 105.018 42.6576 104.668 43.0713C104.286 43.485 103.871 43.8298 103.425 44.1401C102.979 44.4159 102.469 44.6572 101.928 44.8296C101.386 45.002 100.844 45.071 100.271 45.071C99.4107 45.071 98.6142 44.8986 97.8495 44.5538C97.0848 44.209 96.4476 43.7264 95.8741 43.1058C95.3324 42.4852 94.8864 41.7957 94.5678 40.9682C94.2492 40.1408 94.0898 39.2789 94.0898 38.348C94.0898 37.7274 94.1536 37.1413 94.3129 36.5552C94.4722 35.9691 94.6634 35.4519 94.9182 34.9693C95.1731 34.4866 95.4918 34.0039 95.8741 33.6247C96.2564 33.2109 96.6706 32.8662 97.1167 32.5904C97.5627 32.3145 98.0725 32.0732 98.5823 31.9008C99.1558 31.694 99.6975 31.625 100.271 31.625ZM100.271 33.866C99.6975 33.866 99.1558 33.9694 98.6779 34.2108C98.1681 34.4521 97.7539 34.7624 97.3716 35.1761C96.9892 35.5898 96.7025 36.0725 96.4795 36.5897C96.2564 37.1413 96.1608 37.7274 96.1608 38.348C96.1608 38.9686 96.2564 39.5547 96.4795 40.1063C96.7025 40.6579 96.9892 41.1061 97.3716 41.5199C97.7539 41.9336 98.1681 42.2439 98.6779 42.4852C99.1877 42.7265 99.6975 42.83 100.271 42.83C100.844 42.83 101.386 42.7265 101.896 42.4852C102.406 42.2439 102.852 41.9336 103.202 41.5199C103.585 41.1061 103.871 40.6579 104.094 40.1063C104.317 39.5547 104.413 38.9686 104.413 38.348C104.413 37.7274 104.317 37.1413 104.094 36.5897C103.871 36.038 103.585 35.5554 103.202 35.1761C102.82 34.7624 102.406 34.4521 101.896 34.2108C101.386 33.9694 100.844 33.866 100.271 33.866Z" fill="#0094F8"/>
<path d="M100.269 45.3819C99.3771 45.3819 98.5169 45.2095 97.7204 44.8303C96.9238 44.4511 96.2229 43.9684 95.6494 43.3133C95.0758 42.6927 94.5979 41.9342 94.2793 41.0723C93.9288 40.2104 93.7695 39.2795 93.7695 38.3142C93.7695 37.6591 93.8333 37.0385 93.9926 36.4524C94.1519 35.8663 94.3749 35.2802 94.6298 34.7631C94.9165 34.2459 95.267 33.7632 95.6494 33.315C96.0317 32.9013 96.4778 32.5221 96.9557 32.2118C97.4336 31.9015 97.9434 31.6601 98.5169 31.4878C99.9507 31.0396 101.48 31.1775 102.818 31.7981C103.615 32.1773 104.316 32.66 104.889 33.315C105.463 33.9701 105.941 34.6941 106.291 35.556C106.642 36.418 106.801 37.3488 106.801 38.3142C106.801 38.9692 106.705 39.5898 106.578 40.2104C106.419 40.7965 106.196 41.3826 105.909 41.8998C105.622 42.4169 105.272 42.8996 104.889 43.3133C104.475 43.727 104.061 44.1063 103.583 44.4166C103.105 44.7269 102.595 44.9682 102.022 45.1406C101.448 45.313 100.843 45.3819 100.269 45.3819ZM100.269 31.9704C99.7276 31.9704 99.2178 32.0394 98.7081 32.2118C98.1983 32.3842 97.7204 32.591 97.3062 32.8324C96.8601 33.1082 96.4778 33.4529 96.1273 33.8322C95.7768 34.2114 95.4582 34.6596 95.2033 35.1078C94.9484 35.5905 94.7572 36.0732 94.6298 36.6248C94.5023 37.1764 94.4386 37.7281 94.4386 38.3142C94.4386 39.1761 94.5979 40.0035 94.8847 40.7965C95.2033 41.555 95.6175 42.2445 96.1273 42.7962C96.6371 43.3823 97.2743 43.8305 97.9752 44.1408C99.1541 44.6924 100.556 44.7958 101.83 44.4166C102.34 44.2787 102.818 44.0718 103.232 43.796C103.647 43.5202 104.061 43.1754 104.411 42.7962C104.762 42.4169 105.08 41.9687 105.335 41.5205C105.59 41.0378 105.781 40.5552 105.941 40.0035C106.068 39.4864 106.164 38.9003 106.164 38.3142C106.164 37.4523 106.004 36.6248 105.718 35.8318C105.399 35.0734 104.985 34.3838 104.475 33.7977C103.933 33.2116 103.296 32.7634 102.595 32.4531C101.83 32.1428 101.066 31.9704 100.269 31.9704ZM100.269 43.1409C99.6639 43.1409 99.0904 43.003 98.5488 42.7617C98.0071 42.5203 97.5292 42.1756 97.1468 41.7274C96.7326 41.3137 96.414 40.7965 96.191 40.2104C95.968 39.6243 95.8405 39.0037 95.8405 38.3142C95.8405 37.6591 95.968 37.0041 96.191 36.418C96.414 35.8318 96.7326 35.3147 97.1468 34.901C97.561 34.4528 98.0071 34.108 98.5488 33.8667C99.632 33.3495 100.938 33.3495 102.022 33.8667C102.563 34.108 103.041 34.4528 103.455 34.901C103.838 35.3492 104.188 35.8318 104.411 36.418C104.634 37.0041 104.762 37.6246 104.762 38.3142C104.762 38.9692 104.634 39.6243 104.411 40.2104C104.188 40.7965 103.87 41.3137 103.455 41.7274C103.041 42.1756 102.595 42.4859 102.022 42.7617C101.48 43.0375 100.875 43.1409 100.269 43.1409ZM100.269 34.2114C99.7595 34.2114 99.2497 34.3149 98.8036 34.5217C98.3576 34.7286 97.9434 35.0389 97.5929 35.4181C97.2424 35.7974 96.9875 36.2456 96.7964 36.7282C96.6052 37.2109 96.5096 37.7625 96.5096 38.3142C96.5096 38.9003 96.6052 39.4174 96.7964 39.9346C96.9875 40.4173 97.2743 40.8655 97.5929 41.2447C97.9434 41.624 98.3257 41.8998 98.8036 42.1066C99.7276 42.5204 100.843 42.5204 101.767 42.1066C102.245 41.8998 102.627 41.5895 102.977 41.2447C103.328 40.8655 103.583 40.4517 103.774 39.9346C103.965 39.4174 104.061 38.9003 104.061 38.3142C104.061 37.7625 103.965 37.2109 103.774 36.7282C103.583 36.2111 103.296 35.7974 102.977 35.4181C102.627 35.0389 102.213 34.7631 101.767 34.5217C101.289 34.3149 100.779 34.2114 100.269 34.2114Z" fill="#0094F8"/>
<path d="M109.286 44.8993C109.158 44.8993 108.999 44.8648 108.872 44.7958C108.744 44.7269 108.649 44.6579 108.553 44.5545C108.457 44.4511 108.394 44.3476 108.33 44.2097C108.266 44.0718 108.234 43.9339 108.234 43.7615V32.7634C108.234 32.591 108.266 32.4531 108.33 32.3152C108.394 32.1773 108.457 32.0739 108.553 31.9704C108.649 31.867 108.744 31.7981 108.872 31.7291C108.999 31.6602 109.127 31.6602 109.286 31.6602H112.631C113.205 31.6602 113.746 31.7291 114.256 31.9015C114.766 32.0739 115.276 32.2807 115.722 32.5566C116.168 32.8324 116.582 33.1771 116.964 33.5909C117.347 34.0046 117.665 34.4528 117.952 34.9355C118.239 35.4181 118.43 35.9353 118.589 36.5214C118.749 37.073 118.812 37.6591 118.812 38.2797C118.812 39.1761 118.653 40.038 118.303 40.831C117.984 41.624 117.538 42.3135 116.964 42.9341C116.391 43.5547 115.754 44.0029 114.989 44.3476C114.224 44.6924 113.46 44.8648 112.599 44.8648H109.286V44.8993ZM110.305 33.9701V42.6927H112.663C113.237 42.6927 113.746 42.5893 114.256 42.348C114.734 42.1066 115.18 41.7963 115.563 41.3826C115.945 41.0034 116.232 40.5207 116.423 40.0036C116.646 39.4864 116.741 38.9348 116.741 38.3487C116.741 37.7626 116.646 37.2109 116.423 36.6938C116.2 36.1766 115.913 35.6939 115.563 35.2802C115.18 34.8665 114.766 34.5562 114.256 34.3149C113.778 34.0735 113.237 33.9356 112.663 33.9356H110.305V33.9701Z" fill="#0094F8"/>
<path d="M112.63 45.2782H109.284C109.093 45.2782 108.934 45.2438 108.742 45.1748C108.583 45.1059 108.424 45.0024 108.296 44.8645C108.169 44.7266 108.073 44.5887 108.01 44.3818C107.946 44.2095 107.914 44.0026 107.914 43.7957V32.7976C107.914 32.5908 107.946 32.3839 108.01 32.2115C108.073 32.0391 108.169 31.9012 108.296 31.7633C108.424 31.6254 108.583 31.522 108.742 31.453C108.902 31.3841 109.093 31.3496 109.284 31.3496H112.63C113.203 31.3496 113.777 31.4186 114.35 31.591C114.892 31.7633 115.433 32.0047 115.911 32.315C116.389 32.6252 116.835 33.0045 117.218 33.4182C117.632 33.8319 117.95 34.3146 118.237 34.8318C118.524 35.3489 118.747 35.9005 118.906 36.4867C119.066 37.0728 119.129 37.6933 119.129 38.3484C119.129 39.3138 118.938 40.2102 118.62 41.0376C118.269 41.865 117.791 42.6235 117.218 43.2441C116.644 43.8647 115.943 44.3818 115.147 44.7266C114.35 45.0714 113.49 45.2782 112.63 45.2782ZM109.284 32.0736C109.189 32.0736 109.093 32.1081 108.997 32.1426C108.902 32.177 108.838 32.2115 108.774 32.2805C108.711 32.3494 108.679 32.4184 108.615 32.5218C108.583 32.5908 108.551 32.6942 108.551 32.7976V43.7957C108.551 43.8992 108.583 44.0026 108.615 44.0716C108.647 44.175 108.711 44.2439 108.742 44.3129C108.806 44.3819 108.87 44.4163 108.965 44.4853C109.061 44.5198 109.125 44.5542 109.22 44.5542H112.566C113.362 44.5542 114.127 44.3818 114.828 44.0716C115.529 43.7268 116.166 43.2786 116.708 42.727C117.249 42.1753 117.664 41.4858 117.982 40.7273C118.301 39.9688 118.46 39.1759 118.46 38.3139C118.46 37.7623 118.396 37.2107 118.237 36.659C118.11 36.1419 117.887 35.6247 117.632 35.1765C117.377 34.7283 117.058 34.2801 116.708 33.9009C116.357 33.5216 115.943 33.1769 115.529 32.9011C115.115 32.6253 114.637 32.4184 114.127 32.2805C113.617 32.1426 113.107 32.0391 112.598 32.0391H109.284V32.0736ZM112.661 43.0373H109.985V33.5906H112.661C113.267 33.5906 113.872 33.7285 114.382 34.0043C114.924 34.2801 115.37 34.6249 115.784 35.0386C116.198 35.4868 116.517 35.9695 116.74 36.5556C116.963 37.1417 117.09 37.7278 117.09 38.3484C117.09 38.969 116.963 39.5551 116.74 40.1412C116.517 40.6928 116.198 41.21 115.784 41.6237C115.402 42.0374 114.924 42.3822 114.382 42.658C113.84 42.8993 113.267 43.0373 112.661 43.0373ZM110.654 42.3132H112.661C113.171 42.3132 113.649 42.2098 114.127 41.9685C114.605 41.7271 114.987 41.4513 115.338 41.1065C115.688 40.7273 115.943 40.3136 116.134 39.8309C116.325 39.3482 116.421 38.8656 116.421 38.3484C116.421 37.8312 116.325 37.3141 116.134 36.8314C115.943 36.3487 115.656 35.9006 115.338 35.5213C114.987 35.1421 114.605 34.8318 114.127 34.6249C113.681 34.418 113.203 34.2801 112.693 34.2801H110.654V42.3132Z" fill="#0094F8"/>
<path d="M121.362 44.898C121.075 44.8635 120.852 44.7601 120.693 44.5532C120.502 44.3463 120.406 44.105 120.406 43.7947V32.8311C120.406 32.6587 120.438 32.5208 120.502 32.3829C120.566 32.245 120.629 32.1416 120.725 32.0381C120.82 31.9347 120.916 31.8657 121.043 31.7968C121.171 31.7278 121.298 31.6934 121.458 31.6934H128.117C128.276 31.6934 128.403 31.7278 128.531 31.7968C128.658 31.8657 128.754 31.9347 128.85 32.0381C128.945 32.1416 129.009 32.245 129.073 32.3829C129.136 32.5208 129.168 32.6587 129.168 32.8311C129.168 32.969 129.136 33.1414 129.073 33.2793C129.009 33.4172 128.945 33.5206 128.85 33.6241C128.754 33.7275 128.658 33.7964 128.531 33.8654C128.403 33.9343 128.276 33.9688 128.117 33.9688H122.477V37.0373H126.906C127.065 37.0373 127.193 37.0717 127.32 37.1407C127.448 37.2096 127.543 37.2786 127.639 37.382C127.734 37.4855 127.798 37.5889 127.862 37.7268C127.926 37.8647 127.957 38.0026 127.957 38.175C127.957 38.3129 127.926 38.4853 127.862 38.5887C127.798 38.7266 127.734 38.8301 127.639 38.9335C127.543 39.0369 127.448 39.1059 127.32 39.1748C127.193 39.2438 127.065 39.2438 126.906 39.2438H122.509V42.657H128.149C128.308 42.657 128.435 42.6915 128.563 42.7604C128.69 42.8294 128.786 42.8983 128.881 43.0018C128.977 43.1052 129.041 43.2431 129.104 43.3465C129.168 43.4844 129.2 43.6223 129.2 43.7947C129.2 44.105 129.104 44.3808 128.913 44.5877C128.722 44.7945 128.467 44.898 128.18 44.898H121.362Z" fill="#0094F8"/>
<path d="M128.115 45.2776H121.329C120.978 45.2432 120.659 45.1053 120.436 44.8295C120.182 44.5536 120.086 44.2089 120.086 43.8296V32.866C120.086 32.6591 120.118 32.4523 120.182 32.2799C120.245 32.1075 120.341 31.9351 120.468 31.8317C120.596 31.6938 120.723 31.5903 120.914 31.5214C121.106 31.4524 121.265 31.418 121.456 31.418H128.115C128.306 31.418 128.466 31.4524 128.657 31.5214C128.816 31.5903 128.975 31.6938 129.071 31.8317C129.198 31.9696 129.294 32.142 129.358 32.3144C129.421 32.4867 129.453 32.6936 129.453 32.9005C129.453 33.1073 129.421 33.2797 129.358 33.4866C129.294 33.659 129.198 33.7969 129.071 33.9348C128.943 34.0727 128.816 34.1761 128.657 34.2451C128.466 34.314 128.306 34.3485 128.115 34.3485H122.826V36.6929H126.904C127.095 36.6929 127.287 36.7274 127.446 36.7963C127.605 36.8653 127.765 36.9687 127.892 37.1066C127.988 37.2101 128.115 37.3825 128.179 37.5548C128.242 37.7272 128.274 37.9341 128.274 38.1409C128.274 38.3478 128.242 38.5202 128.179 38.727C128.115 38.8994 128.019 39.0718 127.892 39.1753C127.765 39.3132 127.637 39.4166 127.478 39.4855C127.318 39.5545 127.127 39.589 126.936 39.589H122.858V42.2782H128.147C128.338 42.2782 128.529 42.3126 128.689 42.3816C128.848 42.4505 129.007 42.5885 129.135 42.7264C129.262 42.8643 129.358 43.0367 129.421 43.1746C129.485 43.3814 129.517 43.5538 129.517 43.7607C129.517 44.1744 129.389 44.5192 129.135 44.795C128.848 45.1397 128.497 45.2776 128.115 45.2776ZM121.392 44.5536H128.115C128.306 44.5536 128.466 44.4847 128.593 44.3468C128.72 44.2089 128.784 44.0365 128.784 43.7951C128.784 43.6917 128.752 43.5883 128.72 43.4849C128.689 43.3814 128.625 43.3125 128.561 43.2435C128.497 43.1746 128.434 43.1401 128.338 43.0711C128.274 43.0367 128.179 43.0022 128.083 43.0022H122.125V38.865H126.904C127 38.865 127.095 38.8305 127.191 38.796C127.287 38.7615 127.35 38.6926 127.414 38.6581C127.478 38.5891 127.542 38.5202 127.573 38.4168C127.605 38.3133 127.637 38.2444 127.637 38.1409C127.637 38.0375 127.605 37.9341 127.573 37.8306C127.542 37.7272 127.478 37.6583 127.414 37.5893C127.35 37.5204 127.287 37.4514 127.191 37.4169C127.095 37.3825 127.032 37.348 126.904 37.348H122.157V33.5555H128.115C128.211 33.5555 128.306 33.5211 128.402 33.4866C128.497 33.4521 128.561 33.3831 128.625 33.3142C128.689 33.2452 128.72 33.1763 128.784 33.0729C128.816 32.9694 128.848 32.9005 128.848 32.797C128.848 32.6936 128.816 32.5902 128.784 32.4867C128.752 32.3833 128.689 32.3144 128.625 32.2454C128.561 32.1765 128.497 32.142 128.402 32.1075C128.306 32.073 128.242 32.0385 128.147 32.0385H121.488C121.392 32.0385 121.297 32.073 121.201 32.1075C121.106 32.142 121.042 32.2109 120.978 32.2799C120.914 32.3488 120.882 32.4178 120.819 32.5212C120.787 32.6247 120.755 32.7281 120.755 32.8315V43.7951C120.755 44.002 120.819 44.1744 120.946 44.3123C121.042 44.4502 121.201 44.5192 121.392 44.5536Z" fill="#0094F8"/>
</svg>
