<?xml version="1.0" encoding="UTF-8"?><svg id="Layer_1" xmlns="http://www.w3.org/2000/svg" viewBox="0 0 1000 1000"><defs><style>.cls-1{fill:#83c9e8;}.cls-2{fill:#4848d4;}</style></defs><rect class="cls-2" width="1000" height="1000"/><path class="cls-1" d="M411.47,519.13v-77.2c0-12.31,9.57-22.1,21.88-22.1,4.33,0,8.43,1.37,11.85,3.42l43.96,26.88v-24.45c0-9.26,2.48-19.2,7.23-27.55h-84.92v-21.68h177.06v21.68h-55.33c-18.29.9-22.36,17.16-22.36,27.55v37.71l38.72,23.67c5.7,3.42,9.34,5.47,11.85,5.47,4.56,0,5.24-5.93,5.24-16.86v-55.79h21.88v77.21c0,12.31-9.57,22.1-21.88,22.1-4.33,0-8.43-1.37-11.85-3.42l-43.96-26.88v30.34h-21.68v-43.6l-38.72-23.67c-5.7-3.42-9.34-5.47-11.85-5.47-4.56,0-5.24,5.92-5.24,16.86v55.78h-21.88Z"/><path class="cls-1" d="M125,571.5h137.32v11.46h-78.68c-9.67.48-11.82,9.08-11.82,14.57v26.04h-11.46v-26.04c0-4.9,1.31-10.15,3.82-14.57h-39.17"/><path class="cls-1" d="M311.12,623.57h-69.62c-13.02,0-20.78-14.21-20.78-26.04s8.24-26.03,21.97-26.03h68.43v11.46h-65.8c-10.99,0-13.38,8.84-13.38,14.57s2.39,14.57,13.38,14.57h65.8v11.46ZM306.1,603.27h-59.47c-3.1,0-5.73-2.63-5.73-5.73s2.63-5.73,5.73-5.73h59.47v11.46Z"/><path class="cls-1" d="M415.79,623.57h-70.82c-13.02,0-20.78-14.21-20.78-26.04s8.24-26.03,21.97-26.03h69.62v11.46h-67.12c-10.99,0-13.38,8.84-13.38,14.57s2.39,14.57,13.38,14.57h67.12v11.46Z"/><path class="cls-1" d="M510.9,623.57v-8.48c-.36-9.67-9.08-11.82-14.57-11.82h-41.44c-4.9,0-10.15-1.31-14.57-3.82v24.12h-11.46v-52.07h11.46v7.76c0,10.27,8.96,12.54,14.57,12.54h41.44c4.9,0,10.15,1.31,14.57,3.82v-24.12h11.46v52.07h-11.46Z"/><path class="cls-1" d="M616.77,623.57v-26.04c0-5.73-2.39-14.57-13.38-14.57h-43.11c-10.99,0-13.38,8.84-13.38,14.57v26.04M535.44,623.57v-26.04c0-12.06,8.24-26.03,21.97-26.03h50.04c13.02.72,20.78,14.21,20.78,26.03v26.04"/><path class="cls-1" d="M716.54,623.57h-54.46c-13.02-.72-20.78-14.21-20.78-26.04s8.24-26.03,21.97-26.03h54.46c13.02.72,20.78,14.21,20.78,26.03s-8.24,26.04-21.97,26.04ZM727.41,597.54c0-5.73-2.39-14.57-13.38-14.57h-48.25c-10.99,0-13.38,8.84-13.38,14.57s2.39,14.57,13.38,14.57h48.25c10.99,0,13.38-8.84,13.38-14.57Z"/><path class="cls-1" d="M867.17,623.57l-29.77-38.25c-.98-1.2-2.61-2.94-4.24-2.94s-3.26,1.85-4.13,2.94l-24.25,32.41c-2.61,3.37-6.74,5.66-11.42,5.66-4.35,0-8.37-2.07-10.98-5.33l-30.78-39.7,7.83-6.85,29.69,38.18c.98,1.2,2.61,2.94,4.24,2.94s3.26-1.85,4.13-2.94l24.25-32.41c2.5-3.37,6.74-5.66,11.42-5.66,4.35,0,8.48,1.96,10.98,5.33l30.86,39.77-7.83,6.85Z"/><path class="cls-1" d="M415.79,623.57h-70.82c-13.02,0-20.78-14.21-20.78-26.04s8.24-26.03,21.97-26.03h69.62v11.46h-67.12c-10.99,0-13.38,8.84-13.38,14.57s2.39,14.57,13.38,14.57h67.12v11.46Z"/></svg>