<?xml version="1.0" encoding="UTF-8"?>
<svg xmlns="http://www.w3.org/2000/svg" viewBox="0 0 160 160" width="160" height="160">
  <rect width="160" height="160" fill="#162427"/>

  <path d="M 0,12 L 0,0 L 12,0" fill="none" stroke="rgba(86,165,221,0.3)" stroke-width="0.7"/>
  <path d="M 148,0 L 160,0 L 160,12" fill="none" stroke="rgba(86,165,221,0.3)" stroke-width="0.7"/>
  <path d="M 0,148 L 0,160 L 12,160" fill="none" stroke="rgba(86,165,221,0.3)" stroke-width="0.7"/>
  <path d="M 148,160 L 160,160 L 160,148" fill="none" stroke="rgba(86,165,221,0.3)" stroke-width="0.7"/>

  <g transform="translate(80,80)">
    <!-- Solid fill housing -->
    <circle cx="0" cy="0" r="62" fill="#1A2E35" stroke="#56A5DD" stroke-width="1" opacity="0.55"/>
    <!-- Outer reference ring -->
    <circle cx="0" cy="0" r="52" fill="none" stroke="#56A5DD" stroke-width="0.8" opacity="0.25"/>
    <!-- Ticks -->
    <line x1="52" y1="0" x2="60" y2="0" stroke="#56A5DD" stroke-width="1.5" opacity="0.6"/>
    <line x1="-52" y1="0" x2="-60" y2="0" stroke="#56A5DD" stroke-width="1.5" opacity="0.6"/>
    <line x1="0" y1="-52" x2="0" y2="-60" stroke="#56A5DD" stroke-width="1.5" opacity="0.6"/>
    <line x1="0" y1="52" x2="0" y2="60" stroke="#56A5DD" stroke-width="1.5" opacity="0.6"/>
    <!-- Arcs -->
    <path d="M 40.37,7.13 A 41 41 0 0 1 7.13,40.37" fill="none" stroke="#56A5DD" stroke-width="5.5" stroke-linecap="butt"/>
    <path d="M -7.13,40.37 A 41 41 0 0 1 -40.37,7.13" fill="none" stroke="#56A5DD" stroke-width="5.5" stroke-linecap="butt"/>
    <path d="M -40.37,-7.13 A 41 41 0 0 1 -7.13,-40.37" fill="none" stroke="#56A5DD" stroke-width="5.5" stroke-linecap="butt"/>
    <path d="M 7.13,-40.37 A 41 41 0 0 1 40.37,-7.13" fill="none" stroke="#56A5DD" stroke-width="5.5" stroke-linecap="butt"/>
    <!-- Grid -->
    <line x1="-28" y1="0" x2="28" y2="0" stroke="#145D90" stroke-width="1" opacity="0.8"/>
    <line x1="0" y1="-28" x2="0" y2="28" stroke="#145D90" stroke-width="1" opacity="0.8"/>
    <line x1="-19" y1="-19" x2="19" y2="19" stroke="#145D90" stroke-width="0.6" opacity="0.4"/>
    <line x1="19" y1="-19" x2="-19" y2="19" stroke="#145D90" stroke-width="0.6" opacity="0.4"/>
    <circle cx="0" cy="0" r="21" fill="none" stroke="#145D90" stroke-width="1.2" opacity="0.5"/>
    <circle cx="0" cy="0" r="5.5" fill="#56A5DD"/>
    <circle cx="0" cy="0" r="2.8" fill="#1A2E35"/>
  </g>
</svg>
